<?xml version="1.0" encoding="UTF-8" standalone="no"?>
<!-- Created with Inkscape (http://www.inkscape.org/) -->

<svg
   xmlns:dc="http://purl.org/dc/elements/1.1/"
   xmlns:cc="http://creativecommons.org/ns#"
   xmlns:rdf="http://www.w3.org/1999/02/22-rdf-syntax-ns#"
   xmlns:svg="http://www.w3.org/2000/svg"
   xmlns="http://www.w3.org/2000/svg"
   version="1.1"
   width="60"
   height="60"
   viewBox="0 0 60 60"
   id="Ebene_1"
   xml:space="preserve"><metadata
     id="metadata27"><rdf:RDF><cc:Work
         rdf:about=""><dc:format>image/svg+xml</dc:format><dc:type
           rdf:resource="http://purl.org/dc/dcmitype/StillImage" /><dc:title></dc:title></cc:Work></rdf:RDF></metadata><defs
     id="defs25" /><g
     transform="matrix(0.91666667,0,0,0.91666667,2.4999999,2.4999999)"
     id="g3"><path
       d="M 30,58 C 14.561,58 2,45.439 2,30 2,14.561 14.561,2 30,2 45.439,2 58,14.561 58,30 58,45.439 45.439,58 30,58 z"
       id="path5"
       style="fill:#3a5897" /><g
       id="g7"><path
         d="M 30,4 C 44.337,4 56,15.664 56,30 56,44.337 44.337,56 30,56 15.664,56 4,44.337 4,30 4,15.664 15.664,4 30,4 M 30,0 C 13.432,0 0,13.432 0,30 0,46.568 13.432,60 30,60 46.568,60 60,46.568 60,30 60,13.432 46.568,0 30,0 l 0,0 z"
         id="path9"
         style="fill:#355089" /></g></g><g
     id="g11"
     style="display:none"><path
       d="m 40.935,15.166 c -1.104,0 -2,-0.896 -2,-2 V 9.833 c 0,-1.104 0.896,-2 2,-2 h 15 c 1.104,0 2,0.896 2,2 v 3.333 c 0,1.104 -0.896,2 -2,2 h -15 z"
       id="path13"
       style="fill:#ffffff;display:inline" /><path
       d="m 55.935,9.833 v 3.333 h -15 V 9.833 h 15 m 0,-4 h -15 c -2.209,0 -4,1.791 -4,4 v 3.333 c 0,2.209 1.791,4 4,4 h 15 c 2.209,0 4,-1.791 4,-4 V 9.833 c 0,-2.209 -1.791,-4 -4,-4 l 0,0 z"
       id="path15"
       style="fill:#8e9cb8;display:inline" /></g><g
     transform="matrix(0.86374433,0,0,0.86374433,4.0876701,3.6557979)"
     id="g17"><path
       d="m 27.335,44 c -0.829,0 -1.5,-0.672 -1.5,-1.5 v -9.421 h -2.097 c -0.829,0 -1.5,-0.672 -1.5,-1.5 v -4.316 c 0,-0.829 0.671,-1.5 1.5,-1.5 h 2.097 v -2.521 c 0,-0.047 0.002,-0.095 0.007,-0.142 0.025,-0.266 0.294,-2.644 1.904,-4.254 1.62,-1.62 3.658,-1.823 3.886,-1.841 C 31.671,17.001 31.71,17 31.749,17 h 4.513 c 0.828,0 1.5,0.671 1.5,1.5 v 3.957 c 0,0.829 -0.672,1.5 -1.5,1.5 H 33.4 c -0.032,0.002 -0.096,0.012 -0.154,0.025 -0.006,0.037 -0.014,0.079 -0.014,0.079 l 10e-4,1.699 2.735,0.002 c 0.43,0 0.838,0.185 1.122,0.506 0.285,0.322 0.418,0.75 0.366,1.175 l -0.523,4.3 c -0.092,0.752 -0.73,1.318 -1.489,1.318 H 33.233 V 42.5 c 0,0.828 -0.672,1.5 -1.5,1.5 h -4.398 z"
       id="path19"
       style="fill:#ffffff" /><path
       d="m 36.262,18.5 v 3.957 H 33.4 c 0,0 -0.817,0.016 -1.21,0.409 -0.431,0.431 -0.457,1.14 -0.457,1.14 v 3.253 l 4.234,0.004 -0.523,4.3 H 31.733 V 42.5 H 27.335 V 31.579 h -3.597 v -4.316 h 3.597 v -4.021 c 0,0 0.196,-2.06 1.472,-3.335 1.275,-1.275 2.942,-1.406 2.942,-1.406 h 4.513 m 0,-3.001 h -4.513 c -0.078,0 -0.156,0.003 -0.234,0.009 -0.463,0.036 -2.87,0.316 -4.829,2.275 -1.94,1.94 -2.287,4.649 -2.337,5.172 -0.009,0.095 -0.014,0.189 -0.014,0.285 v 1.021 h -0.597 c -1.657,0 -3,1.343 -3,3 v 4.316 c 0,1.657 1.343,3 3,3 h 0.597 V 42.5 c 0,1.657 1.343,3 3,3 h 4.398 c 1.657,0 3,-1.343 3,-3 v -7.938 h 0.711 c 1.517,0 2.795,-1.132 2.978,-2.638 l 0.523,-4.3 c 0.104,-0.852 -0.162,-1.708 -0.73,-2.35 -0.098,-0.11 -0.202,-0.212 -0.313,-0.306 0.819,-0.536 1.36,-1.461 1.36,-2.513 V 18.5 c 0,-1.657 -1.343,-3 -3,-3 l 0,0 z"
       id="path21"
       style="fill:#355089" /></g></svg>