<?xml version="1.0" encoding="UTF-8" standalone="no"?>
<!-- Generator: Adobe Illustrator 18.0.0, SVG Export Plug-In . SVG Version: 6.00 Build 0)  -->

<svg
   xmlns:dc="http://purl.org/dc/elements/1.1/"
   xmlns:cc="http://creativecommons.org/ns#"
   xmlns:rdf="http://www.w3.org/1999/02/22-rdf-syntax-ns#"
   xmlns:svg="http://www.w3.org/2000/svg"
   xmlns="http://www.w3.org/2000/svg"
   xmlns:sodipodi="http://sodipodi.sourceforge.net/DTD/sodipodi-0.dtd"
   xmlns:inkscape="http://www.inkscape.org/namespaces/inkscape"
   version="1.1"
   id="Ebene_1"
   x="0px"
   y="0px"
   viewBox="0 0 44 44"
   enable-background="new 0 0 960 560"
   xml:space="preserve"
   inkscape:version="0.48.5 r10040"
   width="100%"
   height="100%"
   sodipodi:docname="freizeit_small.svg"><metadata
     id="metadata17"><rdf:RDF><cc:Work
         rdf:about=""><dc:format>image/svg+xml</dc:format><dc:type
           rdf:resource="http://purl.org/dc/dcmitype/StillImage" /></cc:Work></rdf:RDF></metadata><defs
     id="defs15" /><sodipodi:namedview
     pagecolor="#ffffff"
     bordercolor="#666666"
     borderopacity="1"
     objecttolerance="10"
     gridtolerance="10"
     guidetolerance="10"
     inkscape:pageopacity="0"
     inkscape:pageshadow="2"
     inkscape:window-width="1920"
     inkscape:window-height="1151"
     id="namedview13"
     showgrid="false"
     inkscape:zoom="5"
     inkscape:cx="125.4"
     inkscape:cy="40.5"
     inkscape:window-x="0"
     inkscape:window-y="0"
     inkscape:window-maximized="1"
     inkscape:current-layer="Ebene_1" /><g
     id="g3"
     transform="matrix(0.075,0,0,0.075,-14,1)"><path
       d="M 480,25.5 C 620,25.5 734.5,140 734.5,280 734.5,420 620,534.5 480,534.5 340,534.5 225.5,420 225.5,280 225.5,140 340,25.5 480,25.5 M 480,0 C 326,0 200,126 200,280 200,434 326,560 480,560 634,560 760,434 760,280 760,126 634,0 480,0 l 0,0 z"
       id="path5"
       inkscape:connector-curvature="0"
       style="fill:#23445d" /></g><circle
     enable-background="new    "
     cx="480"
     cy="280"
     r="254.5"
     id="circle7"
     sodipodi:cx="480"
     sodipodi:cy="280"
     sodipodi:rx="254.5"
     sodipodi:ry="254.5"
     style="opacity:0.75;fill:#ffffff"
     transform="matrix(0.075,0,0,0.075,-14,1)" /><path
     display="none"
     d="m 585.6,-121.5 h -86.5 c 0,0 3.8,-71.3 -26.7,-71.3 -29.3,0 -24.2,71.3 -24.2,71.3 H 374.4 V -298.4 L 480,-376 l 105.6,77.6 v 176.9 z"
     id="path9"
     inkscape:connector-curvature="0"
     style="fill:#23445d;display:none" /><path
     clip-rule="evenodd"
     d="m 28.150006,13.607499 c 0.397501,0.885001 1.605001,1.035001 2.52,2.235001 0.922501,1.2 1.882497,2.67 2.054993,3.322499 0.172506,0.6525 -0.04496,2.01 -2.234992,3.4725 -2.182501,1.4625 -3.112505,1.68 -4.492501,1.5675 -2.174999,-0.172499 -3.382498,1.2225 -4.177501,2.0025 -0.817502,0.8025 -0.330006,1.8225 -5.520003,3.4575 -3.9375,1.237501 -6.284994,-1.019999 -6.5099997,-1.92 -0.067486,-0.2775 -0.6149945,-1.4925 2.9399997,-3.54 3.555004,-2.0475 5.002506,-4.432499 5.527506,-6.3975 0.525,-1.964999 0.382495,-1.859999 0.824994,-2.114999 0.442499,-0.255 1.455004,0.6225 2.550001,0.51 1.094998,-0.112501 4.605004,-1.335001 4.874998,-2.332501 0.270002,-0.9975 0.3675,-0.825 0.607501,-0.967499 0.464997,-0.2625 0.637503,-0.180001 1.035004,0.704999 z"
     id="path11"
     inkscape:connector-curvature="0"
     style="fill:#23445d;fill-rule:evenodd" /></svg>