<?xml version="1.0" encoding="UTF-8" standalone="no"?>
<!-- Generator: Adobe Illustrator 18.0.0, SVG Export Plug-In . SVG Version: 6.00 Build 0)  -->

<svg
   xmlns:dc="http://purl.org/dc/elements/1.1/"
   xmlns:cc="http://creativecommons.org/ns#"
   xmlns:rdf="http://www.w3.org/1999/02/22-rdf-syntax-ns#"
   xmlns:svg="http://www.w3.org/2000/svg"
   xmlns="http://www.w3.org/2000/svg"
   xmlns:sodipodi="http://sodipodi.sourceforge.net/DTD/sodipodi-0.dtd"
   xmlns:inkscape="http://www.inkscape.org/namespaces/inkscape"
   version="1.1"
   id="Ebene_1"
   x="0px"
   y="0px"
   viewBox="0 0 44 44"
   enable-background="new 0 0 960 560"
   xml:space="preserve"
   inkscape:version="0.48.5 r10040"
   width="100%"
   height="100%"
   sodipodi:docname="freizeit.svg"><metadata
     id="metadata17"><rdf:RDF><cc:Work
         rdf:about=""><dc:format>image/svg+xml</dc:format><dc:type
           rdf:resource="http://purl.org/dc/dcmitype/StillImage" /></cc:Work></rdf:RDF></metadata><defs
     id="defs15" /><sodipodi:namedview
     pagecolor="#ffffff"
     bordercolor="#666666"
     borderopacity="1"
     objecttolerance="10"
     gridtolerance="10"
     guidetolerance="10"
     inkscape:pageopacity="0"
     inkscape:pageshadow="2"
     inkscape:window-width="1068"
     inkscape:window-height="718"
     id="namedview13"
     showgrid="false"
     inkscape:zoom="4.64"
     inkscape:cx="43.524775"
     inkscape:cy="24.986532"
     inkscape:window-x="639"
     inkscape:window-y="133"
     inkscape:window-maximized="0"
     inkscape:current-layer="Ebene_1" /><g
     id="g3"
     transform="matrix(0.07857143,0,0,0.07857143,-15.714286,0)"><path
       d="M 480,25.5 C 620,25.5 734.5,140 734.5,280 734.5,420 620,534.5 480,534.5 340,534.5 225.5,420 225.5,280 225.5,140 340,25.5 480,25.5 M 480,0 C 326,0 200,126 200,280 200,434 326,560 480,560 634,560 760,434 760,280 760,126 634,0 480,0 l 0,0 z"
       id="path5"
       inkscape:connector-curvature="0"
       style="fill:#23445d" /></g><circle
     enable-background="new    "
     cx="480"
     cy="280"
     r="254.5"
     id="circle7"
     sodipodi:cx="480"
     sodipodi:cy="280"
     sodipodi:rx="254.5"
     sodipodi:ry="254.5"
     style="opacity:0.5;fill:#ffffff"
     transform="matrix(0.07857143,0,0,0.07857143,-15.714286,0)" /><path
     display="none"
     d="m 585.6,-121.5 h -86.5 c 0,0 3.8,-71.3 -26.7,-71.3 -29.3,0 -24.2,71.3 -24.2,71.3 H 374.4 V -298.4 L 480,-376 l 105.6,77.6 v 176.9 z"
     id="path9"
     inkscape:connector-curvature="0"
     style="fill:#23445d;display:none" /><path
     clip-rule="evenodd"
     d="m 28.442858,13.207856 c 0.416424,0.927144 1.681426,1.084286 2.64,2.341429 0.966428,1.257142 1.972137,2.797143 2.152859,3.480714 0.180713,0.683571 -0.04714,2.105714 -2.341435,3.637857 -2.286428,1.532142 -3.260711,1.76 -4.706426,1.642143 -2.278574,-0.180715 -3.543567,1.280713 -4.376426,2.097857 -0.85643,0.840713 -0.345717,1.909284 -5.782859,3.622142 -4.124995,1.296428 -6.5842828,-1.068571 -6.8199945,-2.011428 -0.070716,-0.290715 -0.6442912,-1.563571 3.0799975,-3.708571 3.724279,-2.145001 5.240711,-4.643572 5.790714,-6.702143 0.549994,-2.058571 0.400716,-1.948571 0.864285,-2.215714 0.463569,-0.267143 1.524285,0.652142 2.671427,0.534285 1.147141,-0.117857 4.824286,-1.398571 5.107142,-2.443571 0.282855,-1.045 0.384998,-0.864286 0.636427,-1.013571 0.487142,-0.275 0.667854,-0.188572 1.084289,0.738571 z"
     id="path11"
     inkscape:connector-curvature="0"
     style="fill:#23445d;fill-rule:evenodd" /></svg>