<?xml version="1.0" encoding="UTF-8" standalone="no"?>
<!-- Generator: Adobe Illustrator 18.0.0, SVG Export Plug-In . SVG Version: 6.00 Build 0)  -->

<svg
   xmlns:dc="http://purl.org/dc/elements/1.1/"
   xmlns:cc="http://creativecommons.org/ns#"
   xmlns:rdf="http://www.w3.org/1999/02/22-rdf-syntax-ns#"
   xmlns:svg="http://www.w3.org/2000/svg"
   xmlns="http://www.w3.org/2000/svg"
   xmlns:sodipodi="http://sodipodi.sourceforge.net/DTD/sodipodi-0.dtd"
   xmlns:inkscape="http://www.inkscape.org/namespaces/inkscape"
   version="1.1"
   id="Ebene_1"
   x="0px"
   y="0px"
   viewBox="0 0 44 44"
   enable-background="new 0 0 960 560"
   xml:space="preserve"
   inkscape:version="0.48.5 r10040"
   width="100%"
   height="100%"
   sodipodi:docname="freizeit_active.svg"><metadata
     id="metadata17"><rdf:RDF><cc:Work
         rdf:about=""><dc:format>image/svg+xml</dc:format><dc:type
           rdf:resource="http://purl.org/dc/dcmitype/StillImage" /></cc:Work></rdf:RDF></metadata><defs
     id="defs15" /><sodipodi:namedview
     pagecolor="#ffffff"
     bordercolor="#666666"
     borderopacity="1"
     objecttolerance="10"
     gridtolerance="10"
     guidetolerance="10"
     inkscape:pageopacity="0"
     inkscape:pageshadow="2"
     inkscape:window-width="1920"
     inkscape:window-height="1151"
     id="namedview13"
     showgrid="false"
     inkscape:zoom="5"
     inkscape:cx="125.4"
     inkscape:cy="35.254237"
     inkscape:window-x="0"
     inkscape:window-y="0"
     inkscape:window-maximized="1"
     inkscape:current-layer="Ebene_1" /><g
     id="g3"
     transform="matrix(0.07857143,0,0,0.07857143,-15.714286,0)"><path
       d="M 480,25.5 C 620,25.5 734.5,140 734.5,280 734.5,420 620,534.5 480,534.5 340,534.5 225.5,420 225.5,280 225.5,140 340,25.5 480,25.5 M 480,0 C 326,0 200,126 200,280 200,434 326,560 480,560 634,560 760,434 760,280 760,126 634,0 480,0 l 0,0 z"
       id="path5"
       inkscape:connector-curvature="0"
       style="fill:#5d2235" /></g><circle
     enable-background="new    "
     cx="480"
     cy="280"
     r="254.5"
     id="circle7"
     sodipodi:cx="480"
     sodipodi:cy="280"
     sodipodi:rx="254.5"
     sodipodi:ry="254.5"
     transform="matrix(0.07857143,0,0,0.07857143,-15.714286,0)"
     style="opacity:0.5;fill:#ffffff" /><path
     display="none"
     d="m 585.6,-121.5 h -86.5 c 0,0 3.8,-71.3 -26.7,-71.3 -29.3,0 -24.2,71.3 -24.2,71.3 H 374.4 V -298.4 L 480,-376 l 105.6,77.6 v 176.9 z"
     id="path9"
     inkscape:connector-curvature="0"
     style="fill:#23445d;display:none" /><path
     clip-rule="evenodd"
     d="m 28.442857,13.207857 c 0.416429,0.927143 1.681429,1.084286 2.64,2.341429 0.966429,1.257143 1.972143,2.797143 2.152857,3.480714 0.180715,0.683571 -0.04714,2.105714 -2.341428,3.637857 C 28.607857,24.2 27.633571,24.427857 26.187857,24.31 23.909286,24.129286 22.644286,25.590714 21.811429,26.407857 20.955,27.248571 21.465714,28.317143 16.028571,30.03 11.903571,31.326429 9.4442857,28.961429 9.2085714,28.018571 9.1378574,27.727857 8.5642857,26.455 12.288571,24.31 c 3.724286,-2.145 5.240715,-4.643571 5.790715,-6.702143 0.55,-2.058571 0.400714,-1.948571 0.864285,-2.215714 0.463572,-0.267143 1.524286,0.652143 2.671429,0.534286 1.147143,-0.117858 4.824286,-1.398572 5.107143,-2.443572 0.282857,-1.045 0.385,-0.864286 0.636428,-1.013571 0.487143,-0.275 0.667858,-0.188572 1.084286,0.738571 z"
     id="path11"
     inkscape:connector-curvature="0"
     style="fill:#5d2235;fill-rule:evenodd" /></svg>