<?xml version="1.0" encoding="UTF-8" standalone="no"?>
<!-- Generator: Adobe Illustrator 18.0.0, SVG Export Plug-In . SVG Version: 6.00 Build 0)  -->

<svg
   xmlns:dc="http://purl.org/dc/elements/1.1/"
   xmlns:cc="http://creativecommons.org/ns#"
   xmlns:rdf="http://www.w3.org/1999/02/22-rdf-syntax-ns#"
   xmlns:svg="http://www.w3.org/2000/svg"
   xmlns="http://www.w3.org/2000/svg"
   xmlns:sodipodi="http://sodipodi.sourceforge.net/DTD/sodipodi-0.dtd"
   xmlns:inkscape="http://www.inkscape.org/namespaces/inkscape"
   version="1.1"
   id="Ebene_1"
   x="0px"
   y="0px"
   viewBox="0 0 60 60"
   enable-background="new 0 0 60 60"
   xml:space="preserve"
   inkscape:version="0.48.5 r10040"
   width="100%"
   height="100%"
   sodipodi:docname="friends.svg"><metadata
     id="metadata23"><rdf:RDF><cc:Work
         rdf:about=""><dc:format>image/svg+xml</dc:format><dc:type
           rdf:resource="http://purl.org/dc/dcmitype/StillImage" /></cc:Work></rdf:RDF></metadata><defs
     id="defs21" /><sodipodi:namedview
     pagecolor="#ffffff"
     bordercolor="#666666"
     borderopacity="1"
     objecttolerance="10"
     gridtolerance="10"
     guidetolerance="10"
     inkscape:pageopacity="0"
     inkscape:pageshadow="2"
     inkscape:window-width="1920"
     inkscape:window-height="1151"
     id="namedview19"
     showgrid="false"
     inkscape:zoom="3.9333333"
     inkscape:cx="-1.5254237"
     inkscape:cy="28.98305"
     inkscape:window-x="0"
     inkscape:window-y="0"
     inkscape:window-maximized="1"
     inkscape:current-layer="Ebene_1" /><circle
     cx="30"
     cy="30"
     r="30"
     id="circle3"
     sodipodi:cx="30"
     sodipodi:cy="30"
     sodipodi:rx="30"
     sodipodi:ry="30"
     transform="matrix(0.91666667,0,0,0.91666667,2.4999999,2.4999999)"
     style="fill:#22445d" /><g
     display="none"
     id="g5"><path
       display="inline"
       fill="#FFFFFF"
       d="M40.9,15.2c-1.1,0-2-0.9-2-2V9.8c0-1.1,0.9-2,2-2h15c1.1,0,2,0.9,2,2v3.3c0,1.1-0.9,2-2,2   H40.9z"
       id="path7" /><path
       display="inline"
       fill="#8E9CB8"
       d="M55.9,9.8v3.3h-15V9.8H55.9 M55.9,5.8h-15c-2.2,0-4,1.8-4,4v3.3c0,2.2,1.8,4,4,4h15   c2.2,0,4-1.8,4-4V9.8C59.9,7.6,58.1,5.8,55.9,5.8L55.9,5.8z"
       id="path9" /></g><g
     id="g11"
     transform="matrix(0.91666667,0,0,0.91666667,5.2958332,3)"><path
       d="m 39.5,38.9 c 0,-2.2 -4.1,-5.5 -6.8,-5.5 0,0 -3,0 -5.9,0 -2.9,0 -5.7,0 -5.7,0 -2.7,0 -6.8,3.3 -6.8,5.5 0,0.2 0,0.3 0.1,0.4 0,0.1 -0.1,0.2 -0.1,0.4 V 42 c 1.1,0.5 2.4,0.9 3.9,1.4 v -1.2 c 0.3,0 0.6,0.1 1,0.1 h 1 V 44 c 2.1,0.5 4.4,0.9 6.7,0.9 2.5,0 4.8,-0.3 6.8,-0.7 v -1.8 h 1 c 0.3,0 0.7,0 1,-0.1 v 1.4 c 1.5,-0.4 2.8,-0.9 3.9,-1.4 v -2.5 c 0,-0.1 0,-0.2 -0.1,-0.4 0,-0.3 0,-0.4 0,-0.5 z"
       id="path13"
       inkscape:connector-curvature="0"
       style="fill:#ffffff" /><ellipse
       cx="27.4"
       cy="27"
       rx="5.4000001"
       ry="5.3000002"
       id="ellipse15"
       sodipodi:cx="27.4"
       sodipodi:cy="27"
       sodipodi:rx="5.4000001"
       sodipodi:ry="5.3000002"
       style="fill:#ffffff"
       d="m 32.8,27 c 0,2.927109 -2.417663,5.3 -5.4,5.3 -2.982338,0 -5.4,-2.372891 -5.4,-5.3 0,-2.927109 2.417662,-5.3 5.4,-5.3 2.982337,0 5.4,2.372891 5.4,5.3 z" /></g><path
     d="m 37.675,20.908333 c 0,0 -6.508333,-4.491666 -3.208333,-6.875 1.925,-1.375 3.208333,0.733334 3.208333,0.733334 0,0 1.283333,-2.108334 3.208333,-0.733334 3.208334,2.383334 -3.208333,6.875 -3.208333,6.875"
     id="path17"
     inkscape:connector-curvature="0"
     style="fill:#ffffff" /></svg>