<?xml version="1.0" encoding="UTF-8" standalone="no"?>
<!-- Created with Inkscape (http://www.inkscape.org/) -->

<svg
   xmlns:dc="http://purl.org/dc/elements/1.1/"
   xmlns:cc="http://creativecommons.org/ns#"
   xmlns:rdf="http://www.w3.org/1999/02/22-rdf-syntax-ns#"
   xmlns:svg="http://www.w3.org/2000/svg"
   xmlns="http://www.w3.org/2000/svg"
   version="1.1"
   width="60"
   height="60"
   viewBox="0 0 60 60"
   id="Ebene_1"
   xml:space="preserve"><metadata
     id="metadata29"><rdf:RDF><cc:Work
         rdf:about=""><dc:format>image/svg+xml</dc:format><dc:type
           rdf:resource="http://purl.org/dc/dcmitype/StillImage" /><dc:title></dc:title></cc:Work></rdf:RDF></metadata><defs
     id="defs27" /><g
     transform="matrix(0.91666667,0,0,0.91666667,2.4999999,2.4999999)"
     id="g3"><path
       d="M 30,58 C 14.561,58 2,45.439 2,30 2,14.561 14.561,2 30,2 45.439,2 58,14.561 58,30 58,45.439 45.439,58 30,58 z"
       id="path5"
       style="fill:#ffffff" /><g
       id="g7"><path
         d="M 30,4 C 44.337,4 56,15.664 56,30 56,44.337 44.337,56 30,56 15.664,56 4,44.337 4,30 4,15.664 15.664,4 30,4 M 30,0 C 13.432,0 0,13.432 0,30 0,46.568 13.432,60 30,60 46.568,60 60,46.568 60,30 60,13.432 46.568,0 30,0 l 0,0 z"
         id="path9"
         style="fill:#22445d" /></g></g><g
     id="g11"
     style="display:none"><path
       d="m 40.935,15.166 c -1.104,0 -2,-0.896 -2,-2 V 9.833 c 0,-1.104 0.896,-2 2,-2 h 15 c 1.104,0 2,0.896 2,2 v 3.333 c 0,1.104 -0.896,2 -2,2 h -15 z"
       id="path13"
       style="fill:#ffffff;display:inline" /><path
       d="m 55.935,9.833 v 3.333 h -15 V 9.833 h 15 m 0,-4 h -15 c -2.209,0 -4,1.791 -4,4 v 3.333 c 0,2.209 1.791,4 4,4 h 15 c 2.209,0 4,-1.791 4,-4 V 9.833 c 0,-2.209 -1.791,-4 -4,-4 l 0,0 z"
       id="path15"
       style="fill:#8e9cb8;display:inline" /></g><g
     transform="matrix(0.86430423,0,0,0.86430423,3.9614824,4.0757783)"
     id="g17"><path
       d="m 39.545,38.853 c 0,-2.171 -4.09,-5.503 -6.755,-5.503 0,0 -2.961,0 -5.888,0 -2.862,0 -5.692,0 -5.692,0 -2.665,0 -6.755,3.332 -6.755,5.503 0,0.152 0.034,0.287 0.055,0.429 -0.033,0.115 -0.055,0.234 -0.055,0.358 v 2.393 c 1.138,0.468 2.439,0.943 3.86,1.367 v -1.243 c 0.312,0.036 0.634,0.055 0.965,0.055 h 0.965 v 1.711 c 2.104,0.505 4.385,0.852 6.716,0.852 2.512,0 4.782,-0.292 6.793,-0.729 v -1.834 h 0.965 c 0.331,0 0.653,-0.019 0.965,-0.055 v 1.407 c 1.473,-0.42 2.763,-0.905 3.86,-1.388 v -2.537 c 0,-0.124 -0.022,-0.242 -0.055,-0.358 0.022,-0.141 0.056,-0.276 0.056,-0.428 z"
       id="path19"
       style="fill:#22445d;fill-rule:evenodd" /><ellipse
       cx="27.433001"
       cy="26.955"
       rx="5.4200001"
       ry="5.3200002"
       id="ellipse21"
       style="fill:#22445d;fill-rule:evenodd" /></g><path
     d="m 38.512594,23.876 c 0,0 -6.245279,-4.282577 -3.062235,-6.559556 1.835765,-1.313137 3.03072,0.728353 3.03072,0.728353 0,0 1.194954,-2.04149 3.03072,-0.728353 3.183043,2.276104 -2.999205,6.559556 -2.999205,6.559556"
     id="path23"
     style="fill:#22445d;fill-rule:evenodd" /></svg>