<?xml version="1.0" encoding="UTF-8" standalone="no"?>
<!-- Created with Inkscape (http://www.inkscape.org/) -->

<svg
   xmlns:dc="http://purl.org/dc/elements/1.1/"
   xmlns:cc="http://creativecommons.org/ns#"
   xmlns:rdf="http://www.w3.org/1999/02/22-rdf-syntax-ns#"
   xmlns:svg="http://www.w3.org/2000/svg"
   xmlns="http://www.w3.org/2000/svg"
   version="1.1"
   width="60"
   height="60"
   viewBox="0 0 60 60"
   id="Ebene_1"
   xml:space="preserve"><metadata
     id="metadata41"><rdf:RDF><cc:Work
         rdf:about=""><dc:format>image/svg+xml</dc:format><dc:type
           rdf:resource="http://purl.org/dc/dcmitype/StillImage" /><dc:title></dc:title></cc:Work></rdf:RDF></metadata><defs
     id="defs39" /><g
     transform="matrix(0.91666667,0,0,0.91666667,2.4999999,2.4999999)"
     id="g3"><path
       d="M 30,58 C 14.561,58 2,45.439 2,30 2,14.561 14.561,2 30,2 45.439,2 58,14.561 58,30 58,45.439 45.439,58 30,58 z"
       id="path5"
       style="fill:#696c6f" /><g
       id="g7"><path
         d="M 30,4 C 44.337,4 56,15.664 56,30 56,44.336 44.337,56 30,56 15.664,56 4,44.337 4,30 4,15.663 15.664,4 30,4 M 30,0 C 13.432,0 0,13.432 0,30 0,46.568 13.432,60 30,60 46.568,60 60,46.568 60,30 60,13.432 46.568,0 30,0 l 0,0 z"
         id="path9"
         style="fill:#606265" /></g></g><g
     id="g11"
     style="display:none"><path
       d="m 40.935,15.166 c -1.104,0 -2,-0.896 -2,-2 V 9.833 c 0,-1.104 0.896,-2 2,-2 h 15 c 1.104,0 2,0.896 2,2 v 3.333 c 0,1.104 -0.896,2 -2,2 h -15 z"
       id="path13"
       style="fill:#ffffff;display:inline" /><path
       d="m 55.935,9.833 v 3.333 h -15 V 9.833 h 15 m 0,-4 h -15 c -2.209,0 -4,1.791 -4,4 v 3.333 c 0,2.209 1.791,4 4,4 h 15 c 2.209,0 4,-1.791 4,-4 V 9.833 c 0,-2.209 -1.791,-4 -4,-4 l 0,0 z"
       id="path15"
       style="fill:#8e9cb8;display:inline" /></g><g
     transform="matrix(0.86666667,0,0,0.86666667,4.0008666,4.8666666)"
     id="g17"><g
       id="g19"><path
         d="m 27.16,42.5 c -0.903,0 -1.732,-0.285 -2.465,-0.848 -0.884,-0.691 -1.346,-1.61 -1.346,-2.664 0,-0.983 0.29,-1.902 0.861,-2.73 0.327,-0.482 0.717,-0.867 1.161,-1.148 -0.669,-0.679 -1.023,-1.517 -1.023,-2.427 0,-1.3 0.821,-2.563 2.51,-3.858 1.228,-0.869 2.408,-1.707 3.587,-2.549 1.228,-0.934 1.296,-1.416 1.296,-1.421 0,-0.17 0,-0.697 -0.888,-1.462 -0.665,-0.573 -1.302,-0.852 -1.95,-0.852 -0.014,0 -0.386,0.019 -1.384,0.672 -1.245,0.814 -2.083,1.162 -2.805,1.162 -1.003,0 -1.895,-0.39 -2.581,-1.127 -0.657,-0.705 -1.006,-1.556 -1.006,-2.46 0,-1.619 1.167,-2.992 3.467,-4.083 1.686,-0.809 3.097,-1.203 4.31,-1.203 2.532,0 4.841,0.935 6.86,2.777 2.062,1.877 3.106,4.091 3.106,6.579 0,2.515 -1.224,4.739 -3.636,6.611 l -2.518,1.771 c -0.911,0.631 -1.595,1.2 -2.043,1.698 -0.254,0.281 -0.514,0.504 -0.771,0.679 0.086,0.094 0.169,0.193 0.248,0.299 0.5,0.699 0.745,1.489 0.745,2.372 0,0.89 -0.242,1.729 -0.72,2.494 -0.683,1.106 -1.756,1.718 -3.015,1.718 z"
         id="path21"
         style="fill:#ffffff" /><path
         d="m 28.904,17 c 2.156,0 4.106,0.795 5.85,2.385 1.745,1.59 2.617,3.414 2.617,5.471 0,2.037 -1.019,3.846 -3.056,5.427 -0.07,0.049 -0.89,0.625 -2.46,1.729 -1.004,0.695 -1.769,1.336 -2.296,1.923 -0.477,0.526 -1.003,0.79 -1.58,0.79 -0.566,0 -1.063,-0.206 -1.49,-0.619 -0.428,-0.412 -0.641,-0.887 -0.641,-1.423 0,-0.796 0.641,-1.685 1.923,-2.669 1.183,-0.834 2.365,-1.674 3.547,-2.519 1.282,-0.974 1.924,-1.854 1.924,-2.639 0,-0.924 -0.47,-1.792 -1.409,-2.601 -0.938,-0.81 -1.915,-1.215 -2.929,-1.215 -0.537,0 -1.272,0.306 -2.206,0.917 -0.935,0.611 -1.596,0.917 -1.983,0.917 -0.586,0 -1.08,-0.216 -1.482,-0.648 -0.403,-0.432 -0.604,-0.912 -0.604,-1.438 0,-0.994 0.87,-1.903 2.609,-2.728 1.47,-0.706 2.693,-1.06 3.666,-1.06 m -1.535,19.051 c 0.676,0 1.202,0.254 1.58,0.761 0.298,0.417 0.447,0.909 0.447,1.476 0,0.607 -0.164,1.174 -0.492,1.699 C 28.486,40.662 27.905,41 27.16,41 c -0.566,0 -1.083,-0.178 -1.551,-0.537 -0.507,-0.396 -0.76,-0.889 -0.76,-1.475 0,-0.676 0.198,-1.303 0.596,-1.879 0.478,-0.705 1.118,-1.058 1.924,-1.058 M 28.904,14 c -1.442,0 -3.066,0.443 -4.965,1.354 -2.857,1.355 -4.312,3.185 -4.312,5.433 0,1.291 0.488,2.496 1.411,3.485 0.959,1.031 2.266,1.602 3.676,1.602 1.035,0 2.119,-0.42 3.625,-1.406 0.362,-0.237 0.594,-0.355 0.72,-0.411 0.236,0.049 0.508,0.207 0.813,0.469 0.061,0.052 0.112,0.1 0.156,0.143 -0.121,0.113 -0.281,0.25 -0.493,0.413 -1.164,0.833 -2.329,1.659 -3.495,2.482 -0.032,0.023 -0.064,0.046 -0.096,0.071 -0.766,0.587 -3.097,2.375 -3.097,5.048 0,0.784 0.179,1.527 0.525,2.204 -0.145,0.169 -0.283,0.35 -0.412,0.54 -0.733,1.063 -1.112,2.268 -1.112,3.562 0,1.511 0.679,2.873 1.911,3.838 C 24.768,43.6 25.936,44 27.16,44 c 1.798,0 3.324,-0.865 4.296,-2.436 0.622,-0.996 0.94,-2.103 0.94,-3.277 0,-0.86 -0.184,-1.684 -0.536,-2.422 0.28,-0.296 0.789,-0.754 1.704,-1.388 l 2.297,-1.614 0.177,-0.125 c 0.039,-0.027 0.078,-0.056 0.116,-0.086 3.485,-2.704 4.217,-5.731 4.217,-7.796 0,-2.886 -1.244,-5.545 -3.597,-7.688 C 34.471,15.067 31.822,14 28.904,14 l 0,0 z"
         id="path23"
         style="fill:#606265" /></g></g><g
     id="g25" /><g
     id="g27" /><g
     id="g29" /><g
     id="g31" /><g
     id="g33" /><g
     id="g35" /></svg>