<?xml version="1.0" encoding="UTF-8" standalone="no"?>
<!-- Generator: Adobe Illustrator 18.0.0, SVG Export Plug-In . SVG Version: 6.00 Build 0)  -->

<svg
   xmlns:dc="http://purl.org/dc/elements/1.1/"
   xmlns:cc="http://creativecommons.org/ns#"
   xmlns:rdf="http://www.w3.org/1999/02/22-rdf-syntax-ns#"
   xmlns:svg="http://www.w3.org/2000/svg"
   xmlns="http://www.w3.org/2000/svg"
   xmlns:sodipodi="http://sodipodi.sourceforge.net/DTD/sodipodi-0.dtd"
   xmlns:inkscape="http://www.inkscape.org/namespaces/inkscape"
   version="1.1"
   id="Ebene_1"
   x="0px"
   y="0px"
   viewBox="0 0 44 44"
   enable-background="new 0 0 44 44"
   xml:space="preserve"
   inkscape:version="0.48.5 r10040"
   width="100%"
   height="100%"
   sodipodi:docname="home-small.svg"><metadata
     id="metadata15"><rdf:RDF><cc:Work
         rdf:about=""><dc:format>image/svg+xml</dc:format><dc:type
           rdf:resource="http://purl.org/dc/dcmitype/StillImage" /></cc:Work></rdf:RDF></metadata><defs
     id="defs13" /><sodipodi:namedview
     pagecolor="#ffffff"
     bordercolor="#666666"
     borderopacity="1"
     objecttolerance="10"
     gridtolerance="10"
     guidetolerance="10"
     inkscape:pageopacity="0"
     inkscape:pageshadow="2"
     inkscape:window-width="1920"
     inkscape:window-height="1151"
     id="namedview11"
     showgrid="false"
     inkscape:zoom="5.3636364"
     inkscape:cx="-1.4915254"
     inkscape:cy="21.627119"
     inkscape:window-x="0"
     inkscape:window-y="0"
     inkscape:window-maximized="1"
     inkscape:current-layer="Ebene_1" /><g
     id="g3"
     transform="matrix(0.95454545,0,0,0.95454545,1.0000001,1.0000001)"><path
       d="M 22,2 C 33,2 42,11 42,22 42,33 33,42 22,42 11,42 2,33 2,22 2,11 11,2 22,2 M 22,0 C 9.9,0 0,9.9 0,22 0,34.1 9.9,44 22,44 34.1,44 44,34.1 44,22 44,9.9 34.1,0 22,0 l 0,0 z"
       id="path5"
       inkscape:connector-curvature="0"
       style="fill:#23445d" /></g><circle
     enable-background="new    "
     cx="22"
     cy="22"
     r="20"
     id="circle7"
     sodipodi:cx="22"
     sodipodi:cy="22"
     sodipodi:rx="20"
     sodipodi:ry="20"
     transform="matrix(0.95454545,0,0,0.95454545,1.0000001,1.0000001)"
     style="opacity:0.75;fill:#ffffff" /><path
     d="m 29.922727,31.545455 h -6.490909 c 0,0 0.286364,-5.345454 -2.004545,-5.345454 -2.195455,0 -1.813637,5.345454 -1.813637,5.345454 h -5.536363 l 0,-13.268182 L 22,12.454546 l 7.922727,5.822727 0,13.268182 z"
     id="path9"
     inkscape:connector-curvature="0"
     style="fill:#23445d" /></svg>