<?xml version="1.0" encoding="utf-8"?>
<!-- Generator: Adobe Illustrator 18.0.0, SVG Export Plug-In . SVG Version: 6.00 Build 0)  -->
<!DOCTYPE svg PUBLIC "-//W3C//DTD SVG 1.1//EN" "http://www.w3.org/Graphics/SVG/1.1/DTD/svg11.dtd">
<svg version="1.1"
	 id="Ebene_1" xmlns:dc="http://purl.org/dc/elements/1.1/" xmlns:inkscape="http://www.inkscape.org/namespaces/inkscape" xmlns:svg="http://www.w3.org/2000/svg" xmlns:cc="http://creativecommons.org/ns#" xmlns:rdf="http://www.w3.org/1999/02/22-rdf-syntax-ns#" xmlns:sodipodi="http://sodipodi.sourceforge.net/DTD/sodipodi-0.dtd" sodipodi:docname="freizeit.svg" inkscape:version="0.48.5 r10040"
	 xmlns="http://www.w3.org/2000/svg" xmlns:xlink="http://www.w3.org/1999/xlink" x="0px" y="0px" viewBox="938 518 44 44"
	 enable-background="new 938 518 44 44" xml:space="preserve">
<g id="g3" transform="matrix(0.07857143,0,0,0.07857143,-15.714286,0)">
	<path id="path5" inkscape:connector-curvature="0" fill="#23445D" d="M12418.3,6629.8c133.6,0,242.9,109.3,242.9,242.9
		s-109.3,242.9-242.9,242.9c-133.6,0-242.9-109.3-242.9-242.9S12284.6,6629.8,12418.3,6629.8 M12418.3,6605.5
		c-147,0-267.3,120.3-267.3,267.3c0,147,120.3,267.3,267.3,267.3c147,0,267.3-120.3,267.3-267.3
		C12685.5,6725.8,12565.3,6605.5,12418.3,6605.5L12418.3,6605.5z"/>
</g>
<circle id="circle7" sodipodi:cx="480" sodipodi:ry="254.5" sodipodi:rx="254.5" sodipodi:cy="280" opacity="0.75" fill="#FFFFFF" enable-background="new    " cx="960" cy="540" r="19.1">
</circle>
<g>
	<path fill="#23445D" d="M965,551.5h-12.2c-0.5,0-0.9-0.4-0.9-0.9v-14.7c0-2.4,0.5-1,1.1-0.9l0,0c0.4,0.1,0.7,0.4,0.7,0.8l0.3,3
		c0.1,0.5,0.5,0.8,0.9,0.8l0.5,0c0.4,0,0.8-0.4,0.8-0.8l0.1-0.7c0-0.1,0.1-0.3,0.1-0.4l1.1-1.7c0.1-0.2,0.4-0.4,0.7-0.4l6.7-0.6
		c0.5,0,1-1.5,1,0.9v14.8C965.9,551.1,965.5,551.5,965,551.5z"/>
	<path fill="#23445D" d="M969.4,535.9h-4.2c-0.5,0-0.9,0.4-0.9,0.9v1.2c0,0,0,0,0,0h3.3c0.5,0,0.9,0.4,0.9,0.9v5.7
		c0,0.5-0.4,0.9-0.9,0.9h-3.3c0,0,0,0,0,0v1.2c0,0.5,0.4,0.9,0.9,0.9h4.2c0.5,0,0.9-0.4,0.9-0.9v-10
		C970.3,536.3,969.9,535.9,969.4,535.9z"/>
	<path fill="#23445D" d="M958,528.6c0.6,0,1.2,0.2,1.5,0.6c0,0,0,0,0,0c0,0,0,0,0,0c0.4-0.3,1-0.4,1.6-0.4c1.5,0,2.7,1,2.7,2.2
		c0,0,0,0,0,0c1.2,0.1,2.1,0.9,2.1,1.9c0,1.1-1.1,1.9-2.4,1.9c-0.6,0-1.1-0.2-1.6-0.5c0,0,0,0,0,0c0,0,0,0,0,0
		c-0.4,0.4-1,0.6-1.7,0.6c-0.7,0-1.3-0.3-1.8-0.7c0,0,0,0,0,0c0,0,0,0,0,0c-0.4,0.4-0.9,0.7-1.6,0.7c0,0,0,0,0,0v1.7
		c0,0.4-0.3,0.7-0.7,0.7c0,0,0,0,0,0c-0.3,0-0.6-0.2-0.6-0.5c0,0,0,0,0,0c0,0,0,0,0,0v1.7c0,0.4-0.3,0.7-0.7,0.7c0,0,0,0,0,0
		c-0.4,0-0.7-0.3-0.7-0.7v-3.9c0,0,0,0,0,0c0,0,0,0,0,0c-0.2,0-0.3,0-0.5,0c-1.1,0-2-0.7-2-1.6c0-0.8,0.7-1.4,1.6-1.6c0,0,0,0,0,0
		c-0.2-0.2-0.2-0.5-0.2-0.8c0-0.9,0.9-1.6,2-1.6c0.4,0,0.8,0.1,1.2,0.3c0,0,0,0,0,0c0,0,0,0,0,0C956.7,528.9,957.3,528.6,958,528.6
		 M958,527.5c-0.7,0-1.4,0.2-1.9,0.6c-0.3-0.1-0.6-0.1-0.9-0.1c-0.8,0-1.5,0.3-2.1,0.7c-0.6,0.5-1,1.2-1,2c0,0,0,0.1,0,0.1
		c-0.8,0.5-1.4,1.3-1.4,2.2c0,0.8,0.4,1.5,1,2c0.4,0.3,0.9,0.6,1.5,0.7v2.9c0,0.5,0.2,0.9,0.5,1.2c0.3,0.3,0.8,0.5,1.2,0.6
		c0,0,0,0,0.1,0c1,0,1.8-0.8,1.8-1.8v-0.2c0.3-0.1,0.6-0.3,0.9-0.5c0.3-0.3,0.5-0.8,0.5-1.2v-0.8c0.2-0.1,0.4-0.1,0.6-0.2
		c0.5,0.3,1.1,0.4,1.7,0.4c0.6,0,1.2-0.1,1.7-0.4c0.5,0.2,1,0.3,1.5,0.3c0.9,0,1.7-0.3,2.4-0.8c0.7-0.6,1.1-1.4,1.1-2.2
		c0-1.3-0.9-2.4-2.3-2.9c-0.2-0.6-0.5-1.1-1-1.5c-0.7-0.6-1.6-0.9-2.6-0.9c-0.5,0-1,0.1-1.5,0.3C959.2,527.6,958.6,527.5,958,527.5
		L958,527.5z"/>
</g>
</svg>
