<?xml version="1.0" encoding="UTF-8" standalone="no"?>
<!-- Created with Inkscape (http://www.inkscape.org/) -->

<svg
   xmlns:dc="http://purl.org/dc/elements/1.1/"
   xmlns:cc="http://creativecommons.org/ns#"
   xmlns:rdf="http://www.w3.org/1999/02/22-rdf-syntax-ns#"
   xmlns:svg="http://www.w3.org/2000/svg"
   xmlns="http://www.w3.org/2000/svg"
   version="1.1"
   width="100%"
   height="100%"
   viewBox="938 518 44 44"
   id="Ebene_1"
   xml:space="preserve"><metadata
   id="metadata18"><rdf:RDF><cc:Work
       rdf:about=""><dc:format>image/svg+xml</dc:format><dc:type
         rdf:resource="http://purl.org/dc/dcmitype/StillImage" /><dc:title></dc:title></cc:Work></rdf:RDF></metadata><defs
   id="defs16" />
<g
   transform="matrix(0.07857143,0,0,0.07857143,-15.714286,0)"
   id="g3">
	<path
   d="m 12418.3,6618.3 c 140,0 254.5,114.5 254.5,254.5 0,140 -114.5,254.5 -254.5,254.5 -140,0 -254.5,-114.5 -254.5,-254.5 -0.1,-140 114.4,-254.5 254.5,-254.5 m 0,-25.5 c -154,0 -280,126 -280,280 0,154 126,280 280,280 154,0 280,-126 280,-280 0,-154 -126,-280 -280,-280 l 0,0 z"
   id="path5"
   style="fill:#5d2235" />
</g>
<circle
   cx="960"
   cy="540"
   r="20"
   id="circle7"
   style="opacity:0.5;fill:#ffffff" />
<g
   id="g6">
	<path
   d="m 965.2,552 h -12.8 c -0.5,0 -0.9,-0.4 -0.9,-0.9 v -15.4 c 0,-2.5 0.5,-1 1.1,-0.9 l 0,0 c 0.4,0.1 0.7,0.4 0.7,0.8 l 0.3,3.1 c 0.1,0.5 0.5,0.9 1,0.8 l 0.5,0 c 0.4,0 0.8,-0.4 0.9,-0.8 l 0.1,-0.8 c 0,-0.1 0.1,-0.3 0.1,-0.4 l 1.1,-1.8 c 0.2,-0.2 0.4,-0.4 0.7,-0.4 l 7,-0.6 c 0.5,0 1,-1.6 1,0.9 v 15.5 c 0.1,0.5 -0.3,0.9 -0.8,0.9 z"
   id="path8"
   style="fill:#5d2235" />
	<path
   d="m 969.8,535.7 h -4.4 c -0.5,0 -1,0.4 -1,1 v 1.3 c 0,0 0,0 0,0 h 3.4 c 0.5,0 1,0.4 1,1 v 5.9 c 0,0.5 -0.4,1 -1,1 h -3.4 c 0,0 0,0 0,0 v 1.3 c 0,0.5 0.4,1 1,1 h 4.4 c 0.5,0 1,-0.4 1,-1 v -10.4 c 0,-0.7 -0.5,-1.1 -1,-1.1 z"
   id="path10"
   style="fill:#5d2235" />
	<path
   d="m 958,528 c 0.6,0 1.2,0.2 1.6,0.6 0,0 0,0 0,0 0,0 0,0 0,0 0.5,-0.3 1.1,-0.5 1.7,-0.5 1.5,0 2.8,1 2.8,2.3 0,0 0,0 0,0 1.3,0.1 2.3,1 2.3,2 0,1.1 -1.1,2 -2.5,2 -0.6,0 -1.2,-0.2 -1.6,-0.5 0,0 0,0 0,0 0,0 0,0 0,0 -0.4,0.4 -1.1,0.6 -1.8,0.6 -0.7,0 -1.4,-0.3 -1.8,-0.7 0,0 0,0 0,0 0,0 0,0 0,0 -0.4,0.4 -1,0.7 -1.7,0.7 0,0 0,0 0,0 v 1.8 c 0,0.4 -0.3,0.7 -0.7,0.7 0,0 0,0 0,0 -0.3,0 -0.6,-0.2 -0.7,-0.5 0,0 0,0 0,0 0,0 0,0 0,0 v 1.8 c 0,0.4 -0.3,0.7 -0.7,0.7 0,0 0,0 0,0 -0.4,0 -0.7,-0.3 -0.7,-0.7 v -4.1 c 0,0 0,0 0,0 0,0 0,0 0,0 -0.2,0 -0.3,0.1 -0.5,0.1 -1.2,0 -2.1,-0.8 -2.1,-1.7 0,-0.8 0.7,-1.5 1.7,-1.7 0,0 0,0 0,0 -0.2,-0.2 -0.3,-0.5 -0.3,-0.8 0,-0.9 0.9,-1.7 2.1,-1.7 0.5,0 0.9,0.1 1.2,0.3 0,0 0,0 0,0 0,0 0,0 0,0 0.2,-0.3 0.9,-0.7 1.7,-0.7 m 0,-1.1 c -0.8,0 -1.5,0.2 -2,0.6 -0.3,-0.1 -0.6,-0.1 -1,-0.1 -0.8,0 -1.6,0.3 -2.2,0.7 -0.7,0.5 -1,1.3 -1,2.1 0,0 0,0.1 0,0.1 -0.9,0.5 -1.4,1.4 -1.4,2.4 0,0.8 0.4,1.5 1,2.1 0.4,0.4 1,0.6 1.6,0.7 v 3 c 0,0.5 0.2,0.9 0.5,1.3 0.3,0.4 0.8,0.6 1.3,0.6 0,0 0,0 0.1,0 1,0 1.9,-0.8 1.9,-1.9 v -0.3 c 0.3,-0.1 0.7,-0.3 0.9,-0.5 0.3,-0.3 0.5,-0.8 0.5,-1.3 v -0.8 c 0.2,-0.1 0.4,-0.2 0.6,-0.3 0.5,0.3 1.2,0.4 1.8,0.4 0.7,0 1.3,-0.2 1.8,-0.4 0.5,0.2 1,0.3 1.6,0.3 0.9,0 1.8,-0.3 2.5,-0.8 0.7,-0.6 1.2,-1.4 1.2,-2.3 0,-1.4 -1,-2.5 -2.4,-3 -0.2,-0.6 -0.6,-1.1 -1.1,-1.5 -0.7,-0.6 -1.7,-0.9 -2.7,-0.9 -0.6,0 -1.1,0.1 -1.6,0.3 -0.7,-0.3 -1.3,-0.5 -1.9,-0.5 l 0,0 z"
   id="path12"
   style="fill:#5d2235" />
</g>
</svg>