<?xml version="1.0" encoding="UTF-8" standalone="no"?>
<!-- Created with Inkscape (http://www.inkscape.org/) -->

<svg
   xmlns:dc="http://purl.org/dc/elements/1.1/"
   xmlns:cc="http://creativecommons.org/ns#"
   xmlns:rdf="http://www.w3.org/1999/02/22-rdf-syntax-ns#"
   xmlns:svg="http://www.w3.org/2000/svg"
   xmlns="http://www.w3.org/2000/svg"
   version="1.1"
   width="140"
   height="140"
   viewBox="0 0 140 140"
   id="Ebene_1"
   xml:space="preserve"><metadata
     id="metadata177"><rdf:RDF><cc:Work
         rdf:about=""><dc:format>image/svg+xml</dc:format><dc:type
           rdf:resource="http://purl.org/dc/dcmitype/StillImage" /><dc:title></dc:title></cc:Work></rdf:RDF></metadata><defs
     id="defs175" /><g
     transform="translate(2.0114792,4.1601985)"
     id="g3"><path
       d="m 32.753,8.492 c 2.421,0 4.837,0.372 7.179,1.106 l 20.475,6.415 20.26,6.348 c 12.569,3.938 19.618,17.317 15.712,29.824 -3.106,9.946 -12.219,16.629 -22.676,16.629 -2.122,0 -4.247,-0.287 -6.316,-0.852 l -0.073,-0.02 -0.074,-0.019 -0.261,-0.064 -0.01,-0.002 -0.952,-0.298 c -1.239,-0.388 -2.002,-1.633 -1.773,-2.896 l 0.559,-3.092 -0.079,-0.124 c 0.611,-8.252 -4.513,-16.168 -12.751,-18.749 -1.789,-0.56 -3.647,-0.844 -5.523,-0.844 -6.69,0 -12.654,3.473 -15.873,8.953 l -0.136,0.058 -1.283,2.821 c -0.408,0.898 -1.315,1.479 -2.31,1.479 -0.258,0 -0.519,-0.041 -0.776,-0.121 L 24.998,54.708 C 24.949,54.693 24.861,54.661 24.72,54.6 l -0.176,-0.077 -0.18,-0.069 C 12.617,49.964 6.339,37.083 10.072,25.13 13.179,15.178 22.294,8.492 32.753,8.492 m 0,-8 c -13.545,0 -26.08,8.683 -30.318,22.252 -5.028,16.103 3.465,33.215 19.072,39.181 0.355,0.156 0.72,0.297 1.098,0.416 l 1.074,0.336 c 1.054,0.33 2.12,0.487 3.168,0.487 4.071,0 7.866,-2.371 9.593,-6.168 l 0.109,-0.047 c 1.359,-4.351 5.508,-7.097 9.899,-7.097 1.042,0 2.096,0.154 3.131,0.479 5.396,1.691 8.409,7.425 6.727,12.808 l 0.063,0.099 c -0.933,5.163 2.105,10.34 7.254,11.953 l 1.074,0.336 c 0.192,0.06 0.386,0.101 0.579,0.15 2.809,0.768 5.639,1.135 8.425,1.135 13.543,0 26.076,-8.677 30.313,-22.244 5.228,-16.741 -4.155,-34.579 -20.956,-39.843 0,0 -10.112,-3.168 -20.26,-6.348 C 52.579,5.177 42.323,1.964 42.323,1.964 39.14,0.967 35.919,0.492 32.753,0.492 l 0,0 z"
       id="path5"
       style="fill:#22445d" /></g><path
     d="m 129.06548,5.3801985 c -7.566,-3.076 -8.547,1.399 -8.926,2.612 C 97.728479,79.754198 90.715479,120.3972 68.932479,117.8392 c -17.223,-2.022 -20.256,-13.08 -19.707,-20.591002 l 0.548,0.172 c 4.863,1.523 10.033,-1.174 11.548,-6.024 1.515,-4.851 -1.199,-10.018 -6.062,-11.542 0,0 -5.77,2.896 -10.214,1.503 -4.468,-1.4 -7.61,-7.088 -7.61,-7.088 -4.863,-1.523 -10.033,1.174 -11.548,6.024 -1.515,4.851 1.199,10.018 6.062,11.541 l 1.317,0.413 c -1.566,12.422002 0.716,40.595002 34.76,43.513002 28.722,2.462 34.567001,-12.395 68.749001,-121.851002 0.067,-0.214 2.193,-4.5029995 -7.71,-8.5289995 z"
     id="path7"
     style="fill:#22445d" /><g
     transform="translate(2.0114792,4.1601985)"
     id="g9"
     style="opacity:0.5"><polygon
       points="38,20.5 38,11.5 37,11.5 37,12.5 35,12.5 35,13.5 37,13.5 37,20.5 "
       id="polygon11"
       style="fill:#22445d" /><rect
       width="1"
       height="7"
       x="31"
       y="12.5"
       id="rect13"
       style="fill:#22445d" /><rect
       width="1"
       height="7"
       x="27"
       y="12.5"
       id="rect15"
       style="fill:#22445d" /><rect
       width="3"
       height="1"
       x="28"
       y="11.5"
       id="rect17"
       style="fill:#22445d" /><rect
       width="3"
       height="1"
       x="28"
       y="19.5"
       id="rect19"
       style="fill:#22445d" /><rect
       width="1"
       height="7"
       x="23"
       y="12.5"
       id="rect21"
       style="fill:#22445d" /><rect
       width="1"
       height="7"
       x="19"
       y="12.5"
       id="rect23"
       style="fill:#22445d" /><rect
       width="3"
       height="1"
       x="20"
       y="11.5"
       id="rect25"
       style="fill:#22445d" /><rect
       width="3"
       height="1"
       x="20"
       y="19.5"
       id="rect27"
       style="fill:#22445d" /><rect
       width="1"
       height="7"
       x="55"
       y="12.5"
       id="rect29"
       style="fill:#22445d" /><rect
       width="1"
       height="7"
       x="51"
       y="12.5"
       id="rect31"
       style="fill:#22445d" /><rect
       width="3"
       height="1"
       x="52"
       y="11.5"
       id="rect33"
       style="fill:#22445d" /><rect
       width="3"
       height="1"
       x="52"
       y="19.5"
       id="rect35"
       style="fill:#22445d" /><rect
       width="1"
       height="7"
       x="15"
       y="27.5"
       id="rect37"
       style="fill:#22445d" /><rect
       width="1"
       height="7"
       x="11"
       y="27.5"
       id="rect39"
       style="fill:#22445d" /><rect
       width="3"
       height="1"
       x="12"
       y="26.5"
       id="rect41"
       style="fill:#22445d" /><rect
       width="3"
       height="1"
       x="12"
       y="34.5"
       id="rect43"
       style="fill:#22445d" /><rect
       width="1"
       height="7"
       x="47"
       y="27.5"
       id="rect45"
       style="fill:#22445d" /><rect
       width="1"
       height="7"
       x="43"
       y="27.5"
       id="rect47"
       style="fill:#22445d" /><rect
       width="3"
       height="1"
       x="44"
       y="26.5"
       id="rect49"
       style="fill:#22445d" /><rect
       width="3"
       height="1"
       x="44"
       y="34.5"
       id="rect51"
       style="fill:#22445d" /><rect
       width="1"
       height="7"
       x="55"
       y="27.5"
       id="rect53"
       style="fill:#22445d" /><rect
       width="1"
       height="7"
       x="51"
       y="27.5"
       id="rect55"
       style="fill:#22445d" /><rect
       width="3"
       height="1"
       x="52"
       y="26.5"
       id="rect57"
       style="fill:#22445d" /><rect
       width="3"
       height="1"
       x="52"
       y="34.5"
       id="rect59"
       style="fill:#22445d" /><rect
       width="1"
       height="7"
       x="73"
       y="41.5"
       id="rect61"
       style="fill:#22445d" /><rect
       width="1"
       height="7"
       x="69"
       y="41.5"
       id="rect63"
       style="fill:#22445d" /><rect
       width="3"
       height="1"
       x="70"
       y="40.5"
       id="rect65"
       style="fill:#22445d" /><rect
       width="3"
       height="1"
       x="70"
       y="48.5"
       id="rect67"
       style="fill:#22445d" /><rect
       width="1"
       height="7"
       x="81"
       y="41.5"
       id="rect69"
       style="fill:#22445d" /><rect
       width="1"
       height="7"
       x="77"
       y="41.5"
       id="rect71"
       style="fill:#22445d" /><rect
       width="3"
       height="1"
       x="78"
       y="40.5"
       id="rect73"
       style="fill:#22445d" /><rect
       width="3"
       height="1"
       x="78"
       y="48.5"
       id="rect75"
       style="fill:#22445d" /><polygon
       points="46,20.5 46,11.5 45,11.5 45,12.5 43,12.5 43,13.5 45,13.5 45,20.5 "
       id="polygon77"
       style="fill:#22445d" /><polygon
       points="27,27.5 27,28.5 29,28.5 29,35.5 30,35.5 30,26.5 29,26.5 29,27.5 "
       id="polygon79"
       style="fill:#22445d" /><polygon
       points="38,35.5 38,26.5 37,26.5 37,27.5 35,27.5 35,28.5 37,28.5 37,35.5 "
       id="polygon81"
       style="fill:#22445d" /><polygon
       points="19,41.5 19,42.5 21,42.5 21,49.5 22,49.5 22,40.5 21,40.5 21,41.5 "
       id="polygon83"
       style="fill:#22445d" /><polygon
       points="27,41.5 27,42.5 29,42.5 29,49.5 30,49.5 30,40.5 29,40.5 29,41.5 "
       id="polygon85"
       style="fill:#22445d" /><polygon
       points="79,35.5 79,26.5 78,26.5 78,27.5 76,27.5 76,28.5 78,28.5 78,35.5 "
       id="polygon87"
       style="fill:#22445d" /><polygon
       points="87,35.5 87,26.5 86,26.5 86,27.5 84,27.5 84,28.5 86,28.5 86,35.5 "
       id="polygon89"
       style="fill:#22445d" /><polygon
       points="63,20.5 63,11.5 62,11.5 62,12.5 60,12.5 60,13.5 62,13.5 62,20.5 "
       id="polygon91"
       style="fill:#22445d" /><polygon
       points="63,35.5 63,26.5 62,26.5 62,27.5 60,27.5 60,28.5 62,28.5 62,35.5 "
       id="polygon93"
       style="fill:#22445d" /><polygon
       points="64,40.5 63,40.5 63,41.5 61,41.5 61,42.5 63,42.5 63,49.5 64,49.5 "
       id="polygon95"
       style="fill:#22445d" /><polygon
       points="19,27.5 19,28.5 21,28.5 21,35.5 22,35.5 22,26.5 21,26.5 21,27.5 "
       id="polygon97"
       style="fill:#22445d" /><polygon
       points="68,55.5 68,56.5 70,56.5 70,63.5 71,63.5 71,54.5 70,54.5 70,55.5 "
       id="polygon99"
       style="fill:#22445d" /><polygon
       points="85,41.5 85,42.5 87,42.5 87,49.5 88,49.5 88,40.5 87,40.5 87,41.5 "
       id="polygon101"
       style="fill:#22445d" /><polygon
       points="84,55.5 84,56.5 86,56.5 86,63.5 87,63.5 87,54.5 86,54.5 86,55.5 "
       id="polygon103"
       style="fill:#22445d" /><polygon
       points="14,20.5 14,11.5 13,11.5 13,12.5 11,12.5 11,13.5 13,13.5 13,20.5 "
       id="polygon105"
       style="fill:#22445d" /><rect
       width="1"
       height="7"
       x="39"
       y="41.5"
       id="rect107"
       style="fill:#22445d" /><rect
       width="1"
       height="7"
       x="35"
       y="41.5"
       id="rect109"
       style="fill:#22445d" /><rect
       width="3"
       height="1"
       x="36"
       y="40.5"
       id="rect111"
       style="fill:#22445d" /><rect
       width="3"
       height="1"
       x="36"
       y="48.5"
       id="rect113"
       style="fill:#22445d" /><rect
       width="1"
       height="7"
       x="15"
       y="41.5"
       id="rect115"
       style="fill:#22445d" /><rect
       width="1"
       height="7"
       x="11"
       y="41.5"
       id="rect117"
       style="fill:#22445d" /><rect
       width="3"
       height="1"
       x="12"
       y="40.5"
       id="rect119"
       style="fill:#22445d" /><rect
       width="3"
       height="1"
       x="12"
       y="48.5"
       id="rect121"
       style="fill:#22445d" /><rect
       width="1"
       height="7"
       x="72"
       y="27.5"
       id="rect123"
       style="fill:#22445d" /><rect
       width="1"
       height="7"
       x="68"
       y="27.5"
       id="rect125"
       style="fill:#22445d" /><rect
       width="3"
       height="1"
       x="69"
       y="26.5"
       id="rect127"
       style="fill:#22445d" /><rect
       width="3"
       height="1"
       x="69"
       y="34.5"
       id="rect129"
       style="fill:#22445d" /><rect
       width="1"
       height="7"
       x="72"
       y="12.5"
       id="rect131"
       style="fill:#22445d" /><rect
       width="1"
       height="7"
       x="68"
       y="12.5"
       id="rect133"
       style="fill:#22445d" /><rect
       width="3"
       height="1"
       x="69"
       y="11.5"
       id="rect135"
       style="fill:#22445d" /><rect
       width="3"
       height="1"
       x="69"
       y="19.5"
       id="rect137"
       style="fill:#22445d" /><rect
       width="1"
       height="7"
       x="97"
       y="41.5"
       id="rect139"
       style="fill:#22445d" /><rect
       width="1"
       height="7"
       x="93"
       y="41.5"
       id="rect141"
       style="fill:#22445d" /><rect
       width="3"
       height="1"
       x="94"
       y="40.5"
       id="rect143"
       style="fill:#22445d" /><rect
       width="3"
       height="1"
       x="94"
       y="48.5"
       id="rect145"
       style="fill:#22445d" /><rect
       width="1"
       height="7"
       x="96"
       y="27.5"
       id="rect147"
       style="fill:#22445d" /><rect
       width="1"
       height="7"
       x="92"
       y="27.5"
       id="rect149"
       style="fill:#22445d" /><rect
       width="3"
       height="1"
       x="93"
       y="26.5"
       id="rect151"
       style="fill:#22445d" /><rect
       width="3"
       height="1"
       x="93"
       y="34.5"
       id="rect153"
       style="fill:#22445d" /><rect
       width="1"
       height="7"
       x="80"
       y="55.5"
       id="rect155"
       style="fill:#22445d" /><rect
       width="1"
       height="7"
       x="76"
       y="55.5"
       id="rect157"
       style="fill:#22445d" /><rect
       width="3"
       height="1"
       x="77"
       y="54.5"
       id="rect159"
       style="fill:#22445d" /><rect
       width="3"
       height="1"
       x="77"
       y="62.5"
       id="rect161"
       style="fill:#22445d" /><rect
       width="1"
       height="7"
       x="64"
       y="55.5"
       id="rect163"
       style="fill:#22445d" /><rect
       width="1"
       height="7"
       x="60"
       y="55.5"
       id="rect165"
       style="fill:#22445d" /><rect
       width="3"
       height="1"
       x="61"
       y="54.5"
       id="rect167"
       style="fill:#22445d" /><rect
       width="3"
       height="1"
       x="61"
       y="62.5"
       id="rect169"
       style="fill:#22445d" /><polygon
       points="53,41.5 53,42.5 55,42.5 55,49.5 56,49.5 56,40.5 55,40.5 55,41.5 "
       id="polygon171"
       style="fill:#22445d" /></g></svg>