<?xml version="1.0" encoding="UTF-8" standalone="no"?>
<!-- Generator: Adobe Illustrator 18.0.0, SVG Export Plug-In . SVG Version: 6.00 Build 0)  -->

<svg
   xmlns:dc="http://purl.org/dc/elements/1.1/"
   xmlns:cc="http://creativecommons.org/ns#"
   xmlns:rdf="http://www.w3.org/1999/02/22-rdf-syntax-ns#"
   xmlns:svg="http://www.w3.org/2000/svg"
   xmlns="http://www.w3.org/2000/svg"
   xmlns:sodipodi="http://sodipodi.sourceforge.net/DTD/sodipodi-0.dtd"
   xmlns:inkscape="http://www.inkscape.org/namespaces/inkscape"
   version="1.1"
   id="Ebene_1"
   x="0px"
   y="0px"
   viewBox="0 0 270 270"
   enable-background="new 0 0 270 270"
   xml:space="preserve"
   inkscape:version="0.48.5 r10040"
   width="100%"
   height="100%"
   sodipodi:docname="logo.svg"><metadata
     id="metadata51"><rdf:RDF><cc:Work
         rdf:about=""><dc:format>image/svg+xml</dc:format><dc:type
           rdf:resource="http://purl.org/dc/dcmitype/StillImage" /></cc:Work></rdf:RDF></metadata><defs
     id="defs49" /><sodipodi:namedview
     pagecolor="#ffffff"
     bordercolor="#666666"
     borderopacity="1"
     objecttolerance="10"
     gridtolerance="10"
     guidetolerance="10"
     inkscape:pageopacity="0"
     inkscape:pageshadow="2"
     inkscape:window-width="1920"
     inkscape:window-height="1151"
     id="namedview47"
     showgrid="false"
     showborder="true"
     inkscape:zoom="1.8756036"
     inkscape:cx="137.28814"
     inkscape:cy="132.71186"
     inkscape:window-x="0"
     inkscape:window-y="0"
     inkscape:window-maximized="1"
     inkscape:current-layer="Ebene_1" /><circle
     fill="#FFFFFF"
     cx="135"
     cy="135"
     r="135"
     id="circle3" /><g
     id="g5"><path
       fill="#4D4D4D"
       d="M66.3,202.5c0.6,0.6,1.1,1.3,1.5,2s0.6,1.5,0.6,2.2c0,0.8-0.1,1.6-0.5,2.4c-0.4,0.8-1,1.7-1.8,2.5l-7.2,7.2   c-0.8,0.8-1.7,1.4-2.5,1.8s-1.6,0.5-2.4,0.5s-1.5-0.2-2.2-0.6c-0.7-0.4-1.4-0.9-2-1.5l-4-4c-0.1-0.1-0.2-0.3-0.2-0.4   c0-0.2,0.1-0.3,0.2-0.4l15.8-15.7c0.1-0.1,0.2-0.2,0.4-0.2c0.2,0,0.3,0.1,0.4,0.2L66.3,202.5z M61.9,199.7l-15,14.9l3.6,3.6   c1.1,1.1,2.3,1.7,3.6,1.7s2.6-0.6,3.9-1.9l7.2-7.2c1.3-1.3,2-2.6,2-3.9c0-1.3-0.6-2.5-1.7-3.6L61.9,199.7z"
       id="path7" /><path
       fill="#4D4D4D"
       d="M60.1,228.6c-0.1-0.1-0.2-0.2-0.3-0.3c0-0.1,0-0.3,0.1-0.4c0-0.1,0.1-0.1,0.1-0.1l18.6-14.4   c0.2-0.2,0.5-0.2,0.7,0c0.2,0.2,0.3,0.4,0.2,0.7l-7.2,22.3c0,0,0,0.1,0,0.1s0,0,0,0.1c-0.1,0.1-0.2,0.2-0.4,0.2s-0.3,0-0.5-0.1   c-0.2-0.1-0.3-0.4-0.2-0.6l1.7-5.2l-7.8-5.5l-4.3,3.4C60.6,228.7,60.4,228.7,60.1,228.6z M73.4,229.5l4.6-14.3l-11.9,9.2   L73.4,229.5z"
       id="path9" /><path
       fill="#4D4D4D"
       d="M85.3,218.9c-0.2-0.1-0.3-0.2-0.3-0.3s0-0.3,0-0.4s0.2-0.2,0.3-0.3c0.1-0.1,0.3,0,0.5,0l11.2,5.6   c0.2,0.1,0.3,0.2,0.3,0.3c0,0.1,0,0.3,0,0.4s-0.2,0.2-0.3,0.3c-0.1,0.1-0.3,0.1-0.5,0l-5.1-2.5l-9.7,19.4c-0.1,0.2-0.2,0.3-0.4,0.3   c-0.1,0-0.3,0-0.4,0s-0.2-0.2-0.3-0.3c-0.1-0.1-0.1-0.3,0-0.5l9.7-19.4L85.3,218.9z"
       id="path11" /><path
       fill="#4D4D4D"
       d="M99.1,236l4.9,1.5c0.2,0,0.3,0.1,0.3,0.3c0.1,0.1,0.1,0.3,0,0.5c0,0.1-0.1,0.2-0.2,0.3   c-0.1,0.1-0.3,0.1-0.4,0l-4.9-1.5l-2.9,9.6l10.4,3.1c0.2,0,0.3,0.1,0.3,0.3c0.1,0.1,0.1,0.3,0,0.5c0,0.1-0.1,0.2-0.2,0.3   c-0.1,0.1-0.3,0.1-0.4,0L95,247.5c-0.1,0-0.3-0.1-0.3-0.3c-0.1-0.1-0.1-0.3,0-0.5l6.4-21.3c0.1-0.2,0.2-0.3,0.3-0.4   c0.1-0.1,0.3-0.1,0.4,0l10.9,3.3c0.2,0.1,0.3,0.2,0.3,0.3c0,0.1,0.1,0.3,0,0.4c0,0.2-0.1,0.3-0.3,0.4c-0.1,0.1-0.3,0.1-0.4,0.1   l-10.4-3.1L99.1,236z"
       id="path13" /><path
       fill="#4D4D4D"
       d="M126,251l2.2-19.9c0-0.2,0.1-0.3,0.2-0.4c0.1-0.1,0.3-0.1,0.4-0.1c0.1,0,0.3,0.1,0.4,0.2   c0.1,0.1,0.2,0.2,0.1,0.4l-2.5,22.1c0,0.2-0.1,0.3-0.2,0.4c-0.1,0.1-0.3,0.1-0.4,0.1c-0.2,0-0.4-0.2-0.5-0.5   c-0.1-0.3-0.2-0.5-0.3-0.8l-7.6-20.4l-2.2,19.9c0,0.2-0.1,0.3-0.2,0.4c-0.1,0.1-0.3,0.1-0.4,0.1c-0.1,0-0.3-0.1-0.4-0.2   s-0.1-0.3-0.1-0.4l2.5-22.1c0-0.2,0.1-0.3,0.2-0.4c0.1-0.1,0.3-0.1,0.4-0.1c0.1,0,0.2,0.1,0.3,0.2s0.2,0.2,0.2,0.4s0.1,0.3,0.2,0.4   c0,0.1,0.1,0.2,0.1,0.3L126,251z"
       id="path15" /><path
       fill="#22445D"
       d="M142.2,249.6c0.4,0,0.7-0.1,1.1-0.2c0.4-0.1,0.7-0.2,1-0.4c0.3-0.2,0.5-0.4,0.7-0.7c0.2-0.3,0.2-0.6,0.2-1   c0-0.6-0.3-1.2-0.9-1.6c-0.5-0.4-1.2-0.8-2-1.1c-0.8-0.3-1.6-0.6-2.5-1c-0.9-0.3-1.8-0.8-2.5-1.3c-0.8-0.5-1.5-1.2-2-2   c-0.6-0.8-0.9-1.8-1-3.1c-0.1-1.2,0.1-2.2,0.5-3.1c0.4-0.9,1-1.6,1.7-2.2c0.7-0.6,1.6-1,2.5-1.3c1-0.3,1.9-0.5,2.9-0.6   c0.4,0,1,0,1.7,0c0.7,0,1.4,0.1,2.1,0.2c0.7,0.1,1.3,0.4,1.8,0.7c0.5,0.3,0.8,0.8,0.9,1.4c0,0.2,0,0.5-0.1,0.8   c-0.1,0.3-0.1,0.6-0.3,0.9s-0.3,0.5-0.6,0.7s-0.5,0.3-0.9,0.4c-0.3,0-0.6,0-0.8-0.1c-0.3-0.1-0.5-0.2-0.9-0.4s-0.7-0.2-1.1-0.3   c-0.4-0.1-1-0.1-1.6-0.1c-1.1,0.1-2,0.3-2.4,0.8s-0.7,0.9-0.6,1.4c0,0.5,0.3,1,0.8,1.3c0.5,0.3,1.2,0.6,1.9,0.9   c0.8,0.3,1.6,0.6,2.5,0.9c0.9,0.3,1.8,0.8,2.6,1.3c0.8,0.6,1.5,1.3,2,2.1c0.6,0.9,0.9,2,1,3.3c0.1,1.1,0,2.2-0.4,3.1   c-0.3,0.9-0.8,1.7-1.5,2.3c-0.7,0.6-1.5,1.2-2.4,1.5c-1,0.4-2,0.6-3.2,0.7c-1,0.1-2,0-3-0.1c-1-0.2-1.8-0.4-2.5-0.7   c-0.7-0.3-1.3-0.7-1.8-1.2s-0.7-1-0.7-1.5c0-0.3,0-0.6,0.1-0.9c0.1-0.3,0.2-0.6,0.4-0.9c0.2-0.3,0.4-0.5,0.6-0.7   c0.3-0.2,0.5-0.3,0.8-0.3c0.4,0,0.7,0.1,1.1,0.3s0.7,0.5,1.1,0.7c0.4,0.3,0.9,0.5,1.4,0.7C140.8,249.5,141.4,249.6,142.2,249.6z"
       id="path17" /><path
       fill="#22445D"
       d="M163.4,233.6c-0.1-0.2-0.1-0.5-0.3-0.8c-0.1-0.3-0.3-0.6-0.6-0.8c-0.3-0.3-0.6-0.4-1-0.6   c-0.4-0.1-1-0.1-1.6,0.1c-0.9,0.2-1.5,0.7-1.9,1.3c-0.4,0.6-0.4,1.5-0.1,2.5l2.2,8.2c0.3,1.1,0.7,1.8,1.3,2.1   c0.6,0.4,1.4,0.4,2.3,0.2c0.6-0.2,1.1-0.4,1.4-0.7c0.3-0.3,0.5-0.6,0.6-1c0.1-0.4,0.1-0.7,0.1-1.1c0-0.4-0.1-0.7-0.2-1   c-0.1-0.6,0-1,0.5-1.4c0.4-0.3,0.9-0.6,1.5-0.7c0.8-0.2,1.5-0.2,2,0c0.5,0.2,0.8,0.8,1.1,1.7c0.3,1,0.3,2,0.1,2.9   c-0.2,0.9-0.5,1.7-1.1,2.5c-0.6,0.7-1.3,1.4-2.1,1.9c-0.9,0.5-1.9,1-3,1.2c-1,0.3-2,0.4-3,0.4c-1,0-1.9-0.2-2.7-0.6   c-0.8-0.4-1.6-1-2.2-1.8c-0.6-0.8-1.1-1.9-1.5-3.2l-2.2-8.2c-0.3-1.3-0.4-2.5-0.3-3.5s0.5-1.9,1-2.7c0.5-0.8,1.2-1.4,2-1.9   c0.8-0.5,1.7-0.9,2.8-1.1c1.1-0.3,2.2-0.4,3.2-0.4c1,0,1.9,0.2,2.8,0.5c0.8,0.3,1.6,0.8,2.1,1.5c0.6,0.7,1,1.5,1.3,2.5   c0.2,0.9,0.2,1.6-0.1,2c-0.3,0.4-0.9,0.7-1.7,0.9c-0.7,0.2-1.2,0.2-1.8,0.1C163.9,234.5,163.6,234.2,163.4,233.6z"
       id="path19" /><path
       fill="#22445D"
       d="M184.6,231.4l-5.7,2.8l3.8,7.8c0.2,0.5,0.2,0.9-0.2,1.4c-0.4,0.5-0.8,0.8-1.4,1.1c-0.6,0.3-1.1,0.4-1.7,0.4   c-0.6,0-1-0.2-1.2-0.7l-8.9-18.3c-0.2-0.5-0.2-0.9,0.2-1.4c0.4-0.4,0.8-0.8,1.4-1.1c0.6-0.3,1.1-0.4,1.7-0.4c0.6,0,1,0.2,1.2,0.7   l3.4,7l5.7-2.8l-3.4-7c-0.2-0.5-0.2-0.9,0.2-1.4c0.4-0.4,0.8-0.8,1.4-1.1s1.1-0.4,1.7-0.4c0.6,0,1,0.2,1.2,0.7l8.9,18.3   c0.2,0.5,0.2,0.9-0.2,1.4c-0.4,0.5-0.8,0.8-1.4,1.1c-0.6,0.3-1.1,0.4-1.7,0.4c-0.6,0-1-0.2-1.2-0.7L184.6,231.4z"
       id="path21" /><path
       fill="#22445D"
       d="M211.1,225.8c-0.5,0.4-0.9,0.6-1.4,0.8c-0.5,0.2-1,0.1-1.6-0.1l-11.6-5.1l6.6,8.6c0.3,0.4,0.3,0.9,0.1,1.4   c-0.3,0.5-0.6,1-1.1,1.3s-1,0.6-1.6,0.7s-1,0-1.3-0.4L186.8,217c-0.3-0.4-0.4-0.9-0.1-1.4c0.3-0.5,0.6-1,1.1-1.3   c0.4-0.3,0.7-0.5,1-0.7s0.6-0.3,0.9-0.3c0.3,0,0.7,0,1.1,0.1c0.4,0.1,0.9,0.3,1.5,0.6l10.1,4.7l-6.6-8.6c-0.3-0.4-0.4-0.9-0.1-1.4   s0.7-0.9,1.1-1.3s1-0.6,1.6-0.8c0.6-0.1,1,0,1.3,0.4l12.4,16.1c0.3,0.4,0.3,0.9,0.1,1.4C212,225,211.6,225.4,211.1,225.8z"
       id="path23" /><path
       fill="#22445D"
       d="M223.8,213.4c-0.7,0.8-1.5,1.5-2.3,2.1c-0.8,0.5-1.7,0.9-2.6,1s-1.9,0-2.9-0.3c-1-0.3-2-0.9-3-1.8l-6.4-5.6   c-1-0.9-1.8-1.8-2.2-2.8c-0.5-0.9-0.7-1.9-0.7-2.8c0-0.9,0.2-1.8,0.6-2.7c0.4-0.9,1-1.8,1.7-2.6c0.7-0.8,1.5-1.5,2.3-2.1   c0.8-0.5,1.7-0.9,2.6-1c0.9-0.1,1.9,0,2.9,0.3c1,0.3,2,0.9,3,1.8l6.4,5.6c1,0.9,1.8,1.8,2.2,2.8c0.4,0.9,0.7,1.9,0.7,2.8   c0,0.9-0.2,1.8-0.7,2.7C225.1,211.7,224.5,212.6,223.8,213.4z M213.6,200.7c-0.8-0.7-1.6-1.1-2.3-1c-0.7,0-1.4,0.4-2,1.1   s-0.9,1.4-0.8,2.1c0.1,0.7,0.5,1.4,1.3,2.2l6.4,5.6c0.8,0.7,1.6,1.1,2.3,1c0.7,0,1.4-0.4,2-1.1c0.6-0.7,0.9-1.4,0.8-2.1   c0-0.7-0.5-1.4-1.3-2.2L213.6,200.7z"
       id="path25" /><path
       fill="#22445D"
       d="M214.1,190.4c-0.3-0.2-0.6-0.5-0.7-0.9c-0.1-0.4-0.1-0.8,0.2-1.2l3.3-5.7c0.5-0.9,1.2-1.8,1.8-2.5   c0.7-0.7,1.4-1.2,2.2-1.6c0.8-0.3,1.7-0.5,2.7-0.4c1,0.1,2,0.5,3.1,1.1c1.5,0.9,2.6,1.9,3.1,3.1c0.5,1.2,0.7,2.3,0.5,3.5l8.1,0.2   c0.2,0,0.4,0,0.6,0.2c0.3,0.2,0.5,0.4,0.7,0.7c0.2,0.3,0.3,0.7,0.3,1.1c0.1,0.4,0.1,0.8,0,1.2s-0.2,0.8-0.4,1.1   c-0.2,0.3-0.4,0.5-0.6,0.7c-0.3,0.2-0.6,0.3-1,0.2l-9.6-0.5l-1.1,1.8l6.7,3.9c0.4,0.3,0.6,0.7,0.6,1.3c0,0.6-0.2,1.1-0.5,1.7   c-0.3,0.5-0.7,1-1.2,1.3s-0.9,0.4-1.4,0.1L214.1,190.4z M219.1,187.5l5.1,3l1.6-2.7c0.5-0.8,0.6-1.5,0.5-2.1   c-0.1-0.7-0.7-1.3-1.6-1.8c-1-0.6-1.8-0.7-2.4-0.5s-1.2,0.7-1.6,1.5L219.1,187.5z"
       id="path27" /><path
       fill="#22445D"
       d="M232.2,165.9c-0.2-0.1-0.5-0.1-0.8-0.2c-0.3-0.1-0.7-0.1-1,0c-0.4,0.1-0.7,0.3-1,0.5   c-0.3,0.3-0.6,0.7-0.8,1.4c-0.3,0.9-0.3,1.6,0,2.3c0.3,0.6,1,1.1,2,1.5l8,2.8c1,0.4,1.9,0.4,2.5,0.1c0.7-0.3,1.1-0.9,1.5-1.8   c0.2-0.6,0.3-1.1,0.2-1.5c-0.1-0.4-0.2-0.8-0.5-1c-0.2-0.3-0.5-0.5-0.9-0.7c-0.3-0.2-0.6-0.3-0.9-0.4c-0.5-0.2-0.8-0.6-0.9-1.1   c0-0.5,0.1-1.1,0.3-1.7c0.3-0.8,0.6-1.4,1.1-1.7c0.4-0.3,1.1-0.3,2,0.1c1,0.4,1.8,0.9,2.5,1.5c0.7,0.7,1.1,1.4,1.4,2.3   c0.3,0.9,0.4,1.8,0.4,2.8c0,1-0.2,2.1-0.6,3.2c-0.3,1-0.8,1.9-1.4,2.7c-0.6,0.8-1.2,1.4-2,1.9c-0.8,0.5-1.7,0.7-2.8,0.8   c-1,0.1-2.2-0.1-3.5-0.6l-8-2.8c-1.3-0.4-2.3-1-3.1-1.7s-1.3-1.5-1.7-2.3c-0.3-0.9-0.5-1.8-0.4-2.7c0.1-1,0.3-1.9,0.6-2.9   c0.4-1.1,0.9-2,1.4-2.9c0.6-0.8,1.2-1.5,2-2c0.8-0.5,1.6-0.8,2.4-0.9c0.9-0.1,1.8,0,2.8,0.3c0.9,0.3,1.4,0.7,1.6,1.2   c0.2,0.5,0.1,1.1-0.2,1.9c-0.2,0.6-0.5,1.2-0.9,1.5C233.2,165.9,232.7,166,232.2,165.9z"
       id="path29" /><path
       fill="#22445D"
       d="M242.2,147l-0.9,6.3l8.6,1.2c0.5,0.1,0.9,0.4,1,0.9c0.2,0.6,0.2,1.1,0.1,1.7c-0.1,0.6-0.3,1.2-0.6,1.6   s-0.7,0.7-1.2,0.6l-20.2-2.8c-0.5-0.1-0.9-0.4-1-0.9c-0.2-0.5-0.2-1.1-0.1-1.7c0.1-0.6,0.3-1.2,0.6-1.6c0.3-0.5,0.7-0.7,1.3-0.6   l7.8,1.1l0.9-6.3l-7.8-1.1c-0.5-0.1-0.9-0.4-1-0.9s-0.2-1.1-0.1-1.7c0.1-0.6,0.3-1.2,0.6-1.6c0.3-0.5,0.7-0.7,1.2-0.6l20.2,2.8   c0.5,0.1,0.9,0.4,1,0.9c0.2,0.6,0.2,1.1,0.1,1.7c-0.1,0.6-0.3,1.2-0.6,1.6c-0.3,0.5-0.7,0.7-1.3,0.6L242.2,147z"
       id="path31" /><path
       fill="#22445D"
       d="M239.3,131.7l-0.2-4.8c0-0.5,0.2-0.9,0.5-1.1s0.8-0.4,1.3-0.4c0.4,0,0.9,0.1,1.3,0.3   c0.4,0.2,0.7,0.6,0.7,1.1l0.2,4.8l5.4-0.3l-0.4-8.6c0-0.5,0.2-0.9,0.6-1.2c0.4-0.3,0.9-0.4,1.5-0.5c0.5,0,1,0.1,1.5,0.3   c0.5,0.2,0.7,0.6,0.7,1.1l0.6,11.4c0,0.6-0.1,1.1-0.3,1.5c-0.2,0.5-0.6,0.7-1.1,0.7l-20.3,1c-0.5,0-0.9-0.2-1.2-0.6   s-0.4-0.9-0.5-1.5l-0.6-11.4c0-0.5,0.2-0.9,0.6-1.2c0.4-0.3,0.9-0.4,1.4-0.4c0.6,0,1.1,0.1,1.6,0.3c0.5,0.2,0.7,0.6,0.7,1.1   l0.4,8.6L239.3,131.7z"
       id="path33" /><path
       fill="#22445D"
       d="M250.9,112.4c0.1,0.5,0.1,1.1,0,1.6s-0.5,0.8-1,0.9l-19.8,4.5c-0.5,0.1-1-0.1-1.3-0.5   c-0.3-0.5-0.6-1-0.7-1.6c-0.1-0.6-0.1-1.2,0-1.7c0.1-0.6,0.4-0.9,0.9-1l17.1-3.9l-1.6-7.1c-0.1-0.5,0-0.9,0.4-1.2   c0.4-0.3,0.8-0.6,1.4-0.7c0.5-0.1,1.1-0.1,1.5,0c0.5,0.1,0.8,0.4,0.9,0.9L250.9,112.4z"
       id="path35" /></g><g
     id="g37"><path
       fill="#22445D"
       d="M158.5,28.8c-5.8,0-8.5,4.5-8.5,4.5v7.3v1.2v127c0,8.3-6.7,15.1-15,15.1c-8.3,0-15-7-15-15h0v-7h-17v7h0   c0,18,14.3,32,32,32c17.7,0,31.9-14.4,32-32h0h0V41.8v-1.2v-7.1C167,33.5,164.3,28.8,158.5,28.8z"
       id="path39" /><g
       id="g41"><path
         fill="#FFFFFF"
         d="M80.4,153.1c-18.9,0-34.2-15.3-34.2-34.1c0-18.8,15.4-34,34.2-34h60.8c18.9,0,34.2,15.3,34.2,34    s-15.4,34-34.2,34c-6.8,0-8.5-3.1-11.8-11.9c-2.5-6.8-6.3-17.2-18.2-17.2c-11.7,0-15.7,10.2-18.4,17    C89.3,150,87.4,153.1,80.4,153.1z"
         id="path43" /><path
         fill="#22445D"
         d="M141.2,94c14.2,0,25.7,11.2,25.7,25.3c0,14-11.5,25.4-25.7,25.4c-0.5,0-0.9-0.1-1.1-0.1    c-0.8-1.2-2-4.3-2.7-6.3c-2.5-6.8-8.4-22.8-26.2-22.8c-17.5,0-23.5,15.1-26.3,22.4c-0.8,2.1-2.2,5.6-3.1,6.6    c-0.2,0-0.6,0.1-1.3,0.1c-14.2,0-25.7-11.3-25.7-25.3c0-14,11.5-25.2,25.7-25.2H141 M141.2,76H80.4c-23.6,0-42.8,19.2-42.8,42.8    c0,23.6,19.1,42.8,42.8,42.8c23.6,0,17.2-29.1,30.8-29.1c13.6,0,6.4,29.1,29.9,29.1c23.5,0,42.8-19.2,42.8-42.8    C184,95.2,164.8,76,141.2,76L141.2,76z"
         id="path45" /></g></g></svg>