<?xml version="1.0" encoding="UTF-8" standalone="no"?>
<!-- Created with Inkscape (http://www.inkscape.org/) -->

<svg
   xmlns:dc="http://purl.org/dc/elements/1.1/"
   xmlns:cc="http://creativecommons.org/ns#"
   xmlns:rdf="http://www.w3.org/1999/02/22-rdf-syntax-ns#"
   xmlns:svg="http://www.w3.org/2000/svg"
   xmlns="http://www.w3.org/2000/svg"
   version="1.1"
   width="60"
   height="60"
   viewBox="0 0 60 60"
   id="Ebene_1"
   xml:space="preserve"><metadata
     id="metadata19"><rdf:RDF><cc:Work
         rdf:about=""><dc:format>image/svg+xml</dc:format><dc:type
           rdf:resource="http://purl.org/dc/dcmitype/StillImage" /><dc:title></dc:title></cc:Work></rdf:RDF></metadata><defs
     id="defs17" /><g
     transform="matrix(0.91666667,0,0,0.91666667,2.4999999,2.4999999)"
     id="g3"><path
       d="M 30,58 C 14.561,58 2,45.439 2,30 2,14.561 14.561,2 30,2 45.439,2 58,14.561 58,30 58,45.439 45.439,58 30,58 z"
       id="path5"
       style="fill:#62a8d7" /><path
       d="M 30,4 C 44.337,4 56,15.664 56,30 56,44.337 44.337,56 30,56 15.664,56 4,44.337 4,30 4,15.664 15.664,4 30,4 M 30,0 C 13.432,0 0,13.432 0,30 0,46.568 13.432,60 30,60 46.568,60 60,46.568 60,30 60,13.432 46.568,0 30,0 l 0,0 z"
       id="path7"
       style="fill:#539bd0" /></g><g
     transform="matrix(0.86666667,0,0,0.86666667,3.9999402,3.9999999)"
     id="g9"><path
       d="m 31.249,43.5 c -1.375,0 -2.439,-0.096 -3.451,-0.313 -1.542,-0.329 -2.968,-1.002 -4.24,-1.999 -0.266,-0.211 -0.566,-0.459 -0.853,-0.749 -0.32,-0.263 -0.554,-0.549 -0.745,-0.783 l -0.125,-0.15 c -0.137,-0.164 -0.258,-0.331 -0.378,-0.498 l 0,0 c -0.13,-0.156 -0.214,-0.303 -0.268,-0.396 l -0.054,-0.069 -0.034,-0.065 c -0.107,-0.175 -0.206,-0.354 -0.304,-0.534 l -0.176,-0.317 -0.029,-0.063 c -0.124,-0.275 -0.246,-0.551 -0.363,-0.828 l -0.04,-0.104 c -0.168,-0.494 -0.339,-1 -0.438,-1.553 -0.096,-0.41 -0.16,-0.914 -0.181,-1.469 -0.001,-0.287 -0.011,-0.52 -0.021,-0.752 -0.011,-0.268 -0.021,-0.534 -0.022,-0.803 0,-0.184 -0.007,-0.365 -0.013,-0.547 -0.011,-0.314 -0.021,-0.63 -0.01,-0.945 V 30.17 c 0.003,-1.541 0.006,-3.082 -0.003,-4.624 L 19.503,25.4 c -0.002,-0.253 -0.004,-0.506 0.003,-0.759 -0.004,-0.096 -0.002,-0.192 0.001,-0.289 -0.006,-0.295 -0.005,-0.523 0,-0.751 -0.005,-0.105 -0.005,-0.288 -0.001,-0.471 -0.003,-0.193 -0.005,-0.436 -0.001,-0.677 -0.003,-0.079 -0.002,-0.224 0,-0.369 0.002,-0.155 0.008,-0.311 -0.01,-0.465 -0.044,-0.654 0.031,-1.241 0.23,-1.916 l 0.037,-0.124 0.136,-0.292 c 0.08,-0.186 0.164,-0.37 0.266,-0.545 0.301,-0.48 0.63,-0.875 0.999,-1.21 0.196,-0.208 0.422,-0.331 0.637,-0.399 0.718,-0.421 1.528,-0.634 2.411,-0.634 0.141,0 0.282,0.005 0.425,0.016 0.767,0.057 1.506,0.343 2.197,0.85 l 0.083,0.052 0.089,0.066 c 0.47,0.388 0.792,0.834 1.02,1.18 l 0.045,0.069 0.084,0.165 0.066,0.159 0.291,0.829 0.039,0.638 c 0.018,0.242 0.035,0.483 0.042,0.725 l 0.026,0.069 0.004,0.899 0.028,0.029 v 0.223 l 0.511,0.002 c 0.312,0 0.623,-0.003 0.934,-0.013 0.681,-0.023 1.362,-0.03 2.043,-0.03 l 2.311,0.008 c 0.691,0 1.383,0.027 2.071,0.063 0.348,0.018 0.694,0.098 1.06,0.245 0.731,0.305 1.298,0.681 1.748,1.158 0.32,0.353 0.569,0.727 0.781,1.168 0.184,0.415 0.251,0.76 0.305,1.037 0.017,0.084 0.032,0.169 0.054,0.252 l 0.018,0.072 0.026,0.182 0.006,0.191 c 0.009,0.225 -0.01,0.515 -0.057,0.809 -0.051,0.32 -0.134,0.645 -0.254,0.986 -0.089,0.383 -0.27,0.726 -0.532,1.007 -0.384,0.513 -0.772,0.893 -1.217,1.19 -0.631,0.421 -1.347,0.652 -2.125,0.684 l -1.79,0.077 c -0.486,0.019 -0.973,0.021 -1.459,0.021 0,0 -0.942,0 -1.161,0.003 -0.137,0.03 -0.278,0.045 -0.425,0.045 l -0.16,-0.005 c 10e-4,0.002 -0.826,0.003 -0.826,0.003 -0.145,0 -0.29,-0.005 -0.434,-0.02 l -0.097,-0.01 -0.046,-0.011 v 0.013 h -1.346 c 0.001,0.183 0.004,0.365 0.01,0.547 0.014,0.414 0.025,0.753 0.066,1.05 l 0.039,0.158 c 0.053,0.227 0.152,0.404 0.312,0.56 l 0.059,0.058 0.052,0.063 c 0.038,0.046 0.11,0.098 0.215,0.153 0.089,0.017 0.197,0.042 0.313,0.085 0.028,0.004 0.055,0.01 0.082,0.015 0.057,0.003 0.113,0.008 0.168,0.016 l 0.185,-0.009 c 0.136,0 0.269,0.016 0.396,0.046 l 0.09,0.003 0.047,0.01 0.086,-0.002 c 0.081,0 0.158,0.004 0.234,0.012 l 0.542,0.006 0.071,0.008 c 0.099,0.01 0.198,0.012 0.298,0.012 l 0.581,-0.007 0.905,0.005 1.821,-0.002 c 0.054,-0.005 0.106,-0.007 0.16,-0.007 0.111,0 0.223,0.01 0.332,0.029 h 0.015 c 0.058,-0.009 0.141,-0.015 0.224,-0.015 0.117,0 0.232,0.011 0.345,0.031 0.074,-0.005 0.147,-0.007 0.222,-0.007 0.291,0 0.557,0.04 0.805,0.121 l 0.151,-0.03 0.346,0.204 c 0.133,0.047 0.248,0.106 0.349,0.173 0.573,0.302 0.992,0.711 1.267,1.004 l 0.024,0.026 c 0.08,0.07 0.152,0.148 0.218,0.232 l 0.162,0.174 V 36.4 c 0.03,0.06 0.058,0.121 0.08,0.185 l 0.232,0.419 0.152,0.422 c 0.163,0.31 0.241,0.654 0.23,1.016 0.058,0.786 -0.037,1.475 -0.292,2.104 -0.292,0.64 -0.653,1.103 -0.972,1.479 -0.56,0.664 -1.331,1.084 -2.36,1.286 -0.522,0.104 -1.086,0.152 -1.769,0.152 L 34.38,43.46 c -0.61,0 -1.221,0.011 -1.83,0.022 l -0.904,0.016 -0.397,0.002 z"
       id="path11"
       style="fill:#ffffff" /><path
       d="m 24.211,18 c 0.104,0 0.208,0.004 0.313,0.012 0.525,0.039 0.997,0.252 1.422,0.563 0.033,0.024 0.069,0.043 0.104,0.065 0.291,0.24 0.517,0.537 0.723,0.849 0.011,0.021 0.021,0.042 0.032,0.062 0.073,0.209 0.146,0.419 0.22,0.628 0.023,0.448 0.076,0.894 0.07,1.343 0,0.023 0.016,0.047 0.024,0.071 0.002,0.386 0.004,0.771 0.006,1.156 0,0.037 -0.003,0.073 0.025,0.103 0,0.093 0,0.187 0.001,0.279 0.001,0.22 0.003,0.439 0.004,0.659 0.047,0.148 0.154,0.175 0.296,0.175 0.002,0 0.005,0 0.008,0 0.09,0 0.18,-0.001 0.271,-0.001 0.477,0 0.954,0.007 1.431,0.007 0.329,0 0.657,-0.003 0.985,-0.014 0.664,-0.022 1.328,-0.029 1.992,-0.029 0.771,0 1.541,0.008 2.311,0.008 0.664,0 1.329,0.026 1.992,0.062 0.2,0.01 0.393,0.063 0.578,0.138 0.456,0.19 0.876,0.434 1.219,0.797 0.214,0.236 0.382,0.502 0.52,0.789 0.141,0.319 0.171,0.667 0.254,1 0.004,0.027 0.006,0.054 0.006,0.083 0.007,0.192 -0.008,0.383 -0.038,0.572 -0.044,0.281 -0.122,0.552 -0.222,0.818 -0.025,0.17 -0.096,0.317 -0.226,0.433 -0.255,0.354 -0.54,0.676 -0.907,0.921 -0.411,0.275 -0.862,0.413 -1.354,0.433 -0.594,0.024 -1.189,0.056 -1.784,0.078 -0.468,0.018 -0.936,0.02 -1.404,0.02 -0.167,0 -0.334,0 -0.502,0 -0.3,0 -0.601,0.001 -0.901,0.006 -0.059,0.034 -0.12,0.042 -0.182,0.042 -0.053,0 -0.106,-0.006 -0.159,-0.006 -0.016,0 -0.032,0 -0.049,0.002 -0.022,0.001 -0.044,0.002 -0.066,0.002 -0.039,0 -0.079,-0.001 -0.118,-0.001 -0.038,0 -0.077,0 -0.115,0 -0.029,0 -0.059,0 -0.087,0 -0.035,-0.001 -0.069,-0.001 -0.104,-0.001 -0.096,0 -0.191,0.003 -0.287,0.003 -0.094,0 -0.188,-0.002 -0.281,-0.012 -0.057,-0.013 -0.114,-0.016 -0.171,-0.016 -0.031,0 -0.062,0 -0.092,0 -0.006,0 -0.012,0 -0.018,0 -0.831,0 -1.661,0 -2.492,0 -0.045,0 -0.092,-0.003 -0.137,-0.003 -0.043,0 -0.086,0.003 -0.128,0.014 -0.117,0.031 -0.03,0.167 -0.104,0.223 0.002,0.62 -0.009,1.242 0.011,1.861 0.016,0.484 0.027,0.971 0.119,1.449 0.003,0.02 0.017,0.037 0.025,0.055 0.118,0.498 0.356,0.93 0.725,1.289 0.206,0.25 0.468,0.426 0.755,0.568 0.065,0.053 0.141,0.078 0.222,0.09 0.099,0.016 0.204,0.01 0.282,0.09 0.011,0 0.021,0.002 0.032,0.004 0.016,0.005 0.033,0.007 0.05,0.007 0.024,0 0.049,-0.003 0.073,-0.003 0.033,0 0.066,0.005 0.096,0.031 h -0.001 c 0.025,0.013 0.052,0.016 0.078,0.016 0.034,0 0.068,-0.006 0.101,-0.006 0.025,0 0.049,0.004 0.073,0.014 0.051,0.004 0.103,0.006 0.152,0.008 0.014,0.003 0.028,0.004 0.042,0.004 0.055,0 0.111,-0.017 0.165,-0.017 0.039,0 0.077,0.009 0.114,0.038 0.072,0 0.144,0.004 0.215,0.006 0.047,0.013 0.094,0.016 0.142,0.016 0.05,0 0.1,-0.003 0.149,-0.003 0.041,0 0.081,0.002 0.121,0.011 0.189,0.002 0.379,0.004 0.568,0.006 0.152,0.016 0.304,0.021 0.456,0.021 0.193,0 0.387,-0.007 0.58,-0.007 0.024,0 0.049,0 0.073,0 0.277,0.003 0.556,0.005 0.833,0.005 0.45,0 0.9,-0.003 1.351,-0.003 0.076,0 0.153,0 0.229,0 0.007,0 0.014,0 0.021,0 0.024,0 0.049,10e-4 0.071,0.012 0.063,0 0.127,0 0.191,0 0.039,-0.012 0.079,-0.018 0.118,-0.018 0.044,0 0.088,0.007 0.132,0.021 0.02,0.002 0.039,0.002 0.06,0.002 0.036,0.011 0.072,0.015 0.108,0.015 0.09,0 0.181,-0.023 0.271,-0.023 0.039,0 0.077,0.004 0.116,0.017 0.014,0.006 0.028,0.01 0.042,0.018 0.032,0.002 0.063,0.004 0.095,0.004 0.104,-0.005 0.209,-0.014 0.313,-0.014 0.161,0 0.321,0.021 0.473,0.107 0.005,0.004 0.011,0.007 0.018,0.007 0.002,0 0.004,-10e-4 0.007,-10e-4 0.057,0.01 0.118,0.01 0.165,0.055 0.006,0.004 0.013,0.007 0.02,0.007 0.002,0 0.005,-10e-4 0.007,-10e-4 0.05,0.029 0.121,0.014 0.159,0.07 0.383,0.176 0.69,0.449 0.974,0.752 0,0.045 0.027,0.07 0.063,0.088 0.073,0.029 0.115,0.08 0.12,0.16 0.087,0.156 0.172,0.313 0.259,0.469 0.053,0.146 0.105,0.291 0.158,0.438 0.088,0.125 0.108,0.264 0.089,0.412 0.003,0.021 0.006,0.041 0.009,0.061 0.038,0.496 0.002,0.982 -0.186,1.447 -0.184,0.398 -0.449,0.744 -0.728,1.074 -0.389,0.461 -0.926,0.668 -1.503,0.781 -0.489,0.097 -0.984,0.124 -1.479,0.124 -0.054,0 -0.106,0 -0.16,-10e-4 -0.181,-0.002 -0.362,-0.003 -0.543,-0.003 -0.919,0 -1.838,0.025 -2.756,0.038 C 31.499,41.999 31.374,42 31.249,42 c -1.053,0 -2.101,-0.058 -3.137,-0.279 -1.345,-0.287 -2.547,-0.865 -3.628,-1.713 -0.271,-0.215 -0.533,-0.434 -0.77,-0.684 -0.29,-0.219 -0.5,-0.512 -0.731,-0.785 -0.124,-0.148 -0.235,-0.307 -0.347,-0.463 -0.105,-0.113 -0.158,-0.262 -0.253,-0.383 -0.149,-0.244 -0.279,-0.498 -0.421,-0.748 -0.12,-0.266 -0.237,-0.531 -0.351,-0.799 -0.148,-0.438 -0.3,-0.875 -0.381,-1.332 -0.095,-0.416 -0.143,-0.838 -0.159,-1.264 -0.001,-0.502 -0.04,-1 -0.042,-1.502 0,-0.479 -0.04,-0.959 -0.024,-1.439 0.003,-1.691 0.008,-3.383 -0.002,-5.075 -0.002,-0.304 -0.007,-0.607 0.003,-0.911 -0.011,-0.13 0.007,-0.261 0.001,-0.392 C 21,24.033 21.001,23.835 21.006,23.636 21.002,23.477 21.002,23.319 21.005,23.16 c -0.002,-0.229 -0.004,-0.458 -10e-4,-0.687 -0.01,-0.341 0.019,-0.683 -0.02,-1.023 -0.029,-0.453 0.051,-0.892 0.178,-1.324 0.102,-0.207 0.177,-0.427 0.294,-0.626 0.2,-0.318 0.435,-0.606 0.713,-0.858 0.038,-0.034 0.07,-0.086 0.125,-0.086 0.013,0 0.028,0.003 0.044,0.01 C 22.911,18.168 23.542,18 24.211,18 m 0,-3 0,0 c -1.118,0 -2.149,0.264 -3.074,0.785 -0.342,0.139 -0.707,0.358 -1.051,0.702 -0.449,0.419 -0.838,0.894 -1.168,1.42 l -0.024,0.038 -0.023,0.039 c -0.166,0.282 -0.277,0.54 -0.35,0.711 l -0.048,0.11 -0.104,0.217 -0.082,0.259 c -0.247,0.837 -0.343,1.611 -0.294,2.366 l 0.004,0.071 0.008,0.07 c 0.007,0.089 0.002,0.185 0,0.28 -10e-4,0.141 -0.002,0.283 0,0.424 -0.002,0.219 -10e-4,0.439 0.001,0.658 -0.003,0.164 -0.003,0.327 0,0.492 -0.004,0.216 -0.004,0.433 0.002,0.649 -0.004,0.101 -0.008,0.221 -0.004,0.36 -0.006,0.254 -0.004,0.508 -0.002,0.762 l 0.001,0.144 c 0.01,1.539 0.006,3.078 0.003,4.616 l -0.001,0.391 c -0.01,0.363 0.001,0.698 0.012,0.996 0.006,0.165 0.012,0.33 0.012,0.494 0.001,0.293 0.012,0.578 0.023,0.864 0.009,0.213 0.018,0.427 0.019,0.641 v 0.054 l 0.002,0.054 c 0.024,0.623 0.095,1.195 0.216,1.749 0.119,0.633 0.302,1.172 0.464,1.65 l 0.016,0.047 0.036,0.106 0.044,0.104 c 0.122,0.287 0.248,0.572 0.376,0.856 l 0.058,0.129 0.069,0.122 0.129,0.233 c 0.11,0.202 0.221,0.402 0.341,0.599 l 0.091,0.149 0.018,0.022 c 0.075,0.127 0.181,0.297 0.329,0.481 0.134,0.188 0.271,0.372 0.419,0.55 l 0.117,0.142 c 0.201,0.246 0.489,0.6 0.893,0.941 0.324,0.323 0.648,0.59 0.93,0.813 1.465,1.149 3.098,1.919 4.865,2.296 1.45,0.309 2.843,0.344 3.765,0.344 l 0.409,-0.002 0.92,-0.016 c 0.601,-0.012 1.201,-0.022 1.802,-0.022 0.169,0 0.337,10e-4 0.506,0.003 l 0.197,10e-4 c 0.783,0 1.439,-0.058 2.063,-0.182 1.354,-0.266 2.436,-0.868 3.214,-1.79 0.383,-0.454 0.819,-1.017 1.158,-1.752 l 0.03,-0.066 0.027,-0.067 c 0.335,-0.83 0.466,-1.718 0.4,-2.712 0.002,-0.543 -0.117,-1.074 -0.348,-1.556 L 41.621,36.823 41.544,36.61 41.462,36.381 41.344,36.168 41.28,36.052 v -0.327 l -0.504,-0.539 c -0.104,-0.129 -0.217,-0.251 -0.34,-0.363 -0.345,-0.364 -0.861,-0.856 -1.583,-1.244 -0.131,-0.081 -0.275,-0.157 -0.434,-0.224 l -0.738,-0.434 -0.378,0.075 c -0.131,-0.026 -0.264,-0.047 -0.398,-0.061 0.862,-0.11 1.664,-0.41 2.389,-0.894 0.569,-0.381 1.063,-0.854 1.535,-1.476 0.395,-0.441 0.673,-0.966 0.819,-1.546 0.138,-0.401 0.234,-0.79 0.296,-1.181 0.059,-0.367 0.084,-0.741 0.073,-1.103 -0.003,-0.15 -0.015,-0.3 -0.036,-0.447 L 41.96,26.14 41.924,25.994 C 41.909,25.936 41.9,25.876 41.888,25.817 41.826,25.504 41.735,25.031 41.504,24.509 l -0.02,-0.046 -0.022,-0.045 c -0.271,-0.565 -0.608,-1.071 -1,-1.503 L 40.441,22.892 40.42,22.87 c -0.598,-0.633 -1.333,-1.126 -2.246,-1.506 -0.554,-0.223 -1.06,-0.338 -1.578,-0.365 -0.832,-0.044 -1.515,-0.065 -2.144,-0.065 -0.382,0 -0.761,-0.002 -1.141,-0.004 -0.391,-0.002 -0.781,-0.004 -1.172,-0.004 -0.801,0 -1.455,0.009 -2.054,0.029 L 30.083,20.947 C 30.073,20.76 30.06,20.58 30.047,20.411 30.038,20.282 30.028,20.153 30.021,20.023 L 30,19.592 29.855,19.182 29.64,18.569 29.567,18.361 29.463,18.159 29.388,18.012 29.278,17.838 c -0.263,-0.399 -0.686,-0.99 -1.317,-1.511 l -0.152,-0.126 -0.167,-0.104 -0.031,-0.02 C 26.708,15.446 25.752,15.095 24.748,15.02 24.568,15.007 24.389,15 24.211,15 l 0,0 z"
       id="path13"
       style="fill:#539bd0" /></g></svg>