<?xml version="1.0" encoding="utf-8"?>
<!-- Generator: Adobe Illustrator 18.0.0, SVG Export Plug-In . SVG Version: 6.00 Build 0)  -->
<!DOCTYPE svg PUBLIC "-//W3C//DTD SVG 1.1//EN" "http://www.w3.org/Graphics/SVG/1.1/DTD/svg11.dtd">
<svg version="1.1" id="Ebene_1" xmlns="http://www.w3.org/2000/svg" xmlns:xlink="http://www.w3.org/1999/xlink" x="0px" y="0px"
	 viewBox="0 0 44 44" enable-background="new 0 0 44 44" xml:space="preserve">
<g>
	<path fill="#23445D" d="M22,2c11,0,20,9,20,20s-9,20-20,20S2,33,2,22S11,2,22,2 M22,0C9.9,0,0,9.9,0,22s9.9,22,22,22s22-9.9,22-22
		S34.1,0,22,0L22,0z"/>
</g>
<circle opacity="0.5" fill="#FFFFFF" enable-background="new    " cx="22" cy="22" r="20"/>
<path display="none" fill="#23445D" d="M30.3,31h-6.8c0,0,0.3-5.6-2.1-5.6c-2.3,0-1.9,5.6-1.9,5.6h-5.8l0-13.9L22,11l8.3,6.1
	L30.3,31z"/>
<g>
	<path fill="#23445D" d="M26.1,22.2c-0.1,0-0.7,0.5-2.1,1.4c-0.8,0.6-1.5,1.1-1.9,1.6c-0.4,0.4-0.8,0.7-1.3,0.7
		c-0.5,0-0.9-0.2-1.2-0.5C19.2,25,19,24.6,19,24.2c0-0.7,0.5-1.4,1.6-2.2c1-0.7,2-1.4,3-2.1c1.1-0.8,1.6-1.5,1.6-2.2
		c0-0.8-0.4-1.5-1.2-2.2c-0.8-0.7-1.6-1-2.4-1c-0.4,0-1.1,0.3-1.8,0.8C19,15.7,18.4,16,18.1,16c-0.5,0-0.9-0.2-1.2-0.5
		c-0.3-0.4-0.5-0.8-0.5-1.2c0-0.8,0.7-1.6,2.2-2.3c1.2-0.6,2.2-0.9,3.1-0.9c1.8,0,3.4,0.7,4.9,2c1.5,1.3,2.2,2.8,2.2,4.6
		C28.7,19.4,27.8,20.9,26.1,22.2z M20.1,31.1c-0.5,0-0.9-0.1-1.3-0.4c-0.4-0.3-0.6-0.7-0.6-1.2c0-0.6,0.2-1.1,0.5-1.6
		c0.4-0.6,0.9-0.9,1.6-0.9c0.6,0,1,0.2,1.3,0.6c0.2,0.3,0.4,0.8,0.4,1.2c0,0.5-0.1,1-0.4,1.4C21.2,30.9,20.8,31.1,20.1,31.1z"/>
</g>
</svg>
