<?xml version="1.0" encoding="UTF-8" standalone="no"?>
<!-- Generator: Adobe Illustrator 18.0.0, SVG Export Plug-In . SVG Version: 6.00 Build 0)  -->

<svg
   xmlns:dc="http://purl.org/dc/elements/1.1/"
   xmlns:cc="http://creativecommons.org/ns#"
   xmlns:rdf="http://www.w3.org/1999/02/22-rdf-syntax-ns#"
   xmlns:svg="http://www.w3.org/2000/svg"
   xmlns="http://www.w3.org/2000/svg"
   xmlns:sodipodi="http://sodipodi.sourceforge.net/DTD/sodipodi-0.dtd"
   xmlns:inkscape="http://www.inkscape.org/namespaces/inkscape"
   version="1.1"
   id="Ebene_1"
   x="0px"
   y="0px"
   viewBox="0 0 44 44"
   enable-background="new 0 0 44 44"
   xml:space="preserve"
   inkscape:version="0.48.5 r10040"
   width="100%"
   height="100%"
   sodipodi:docname="wat-small.svg"><metadata
     id="metadata19"><rdf:RDF><cc:Work
         rdf:about=""><dc:format>image/svg+xml</dc:format><dc:type
           rdf:resource="http://purl.org/dc/dcmitype/StillImage" /></cc:Work></rdf:RDF></metadata><defs
     id="defs17" /><sodipodi:namedview
     pagecolor="#ffffff"
     bordercolor="#666666"
     borderopacity="1"
     objecttolerance="10"
     gridtolerance="10"
     guidetolerance="10"
     inkscape:pageopacity="0"
     inkscape:pageshadow="2"
     inkscape:window-width="1920"
     inkscape:window-height="1151"
     id="namedview15"
     showgrid="false"
     inkscape:zoom="5.3636364"
     inkscape:cx="-1.4915254"
     inkscape:cy="21.627119"
     inkscape:window-x="0"
     inkscape:window-y="0"
     inkscape:window-maximized="1"
     inkscape:current-layer="Ebene_1" /><g
     id="g3"
     transform="matrix(0.95454545,0,0,0.95454545,1.0000001,1.0000001)"><path
       d="M 22,2 C 33,2 42,11 42,22 42,33 33,42 22,42 11,42 2,33 2,22 2,11 11,2 22,2 M 22,0 C 9.9,0 0,9.9 0,22 0,34.1 9.9,44 22,44 34.1,44 44,34.1 44,22 44,9.9 34.1,0 22,0 l 0,0 z"
       id="path5"
       inkscape:connector-curvature="0"
       style="fill:#23445d" /></g><circle
     enable-background="new    "
     cx="22"
     cy="22"
     r="20"
     id="circle7"
     sodipodi:cx="22"
     sodipodi:cy="22"
     sodipodi:rx="20"
     sodipodi:ry="20"
     transform="matrix(0.95454545,0,0,0.95454545,1.0000001,1.0000001)"
     style="opacity:0.75;fill:#ffffff" /><path
     display="none"
     fill="#23445D"
     d="M30.3,31h-6.8c0,0,0.3-5.6-2.1-5.6c-2.3,0-1.9,5.6-1.9,5.6h-5.8l0-13.9L22,11l8.3,6.1  L30.3,31z"
     id="path9" /><g
     id="g11"
     transform="matrix(0.95454545,0,0,0.95454545,0.42727283,1.859091)"><path
       d="m 26.1,22.2 c -0.1,0 -0.7,0.5 -2.1,1.4 -0.8,0.6 -1.5,1.1 -1.9,1.6 -0.4,0.4 -0.8,0.7 -1.3,0.7 -0.5,0 -0.9,-0.2 -1.2,-0.5 C 19.2,25 19,24.6 19,24.2 c 0,-0.7 0.5,-1.4 1.6,-2.2 1,-0.7 2,-1.4 3,-2.1 1.1,-0.8 1.6,-1.5 1.6,-2.2 0,-0.8 -0.4,-1.5 -1.2,-2.2 -0.8,-0.7 -1.6,-1 -2.4,-1 -0.4,0 -1.1,0.3 -1.8,0.8 -0.8,0.4 -1.4,0.7 -1.7,0.7 -0.5,0 -0.9,-0.2 -1.2,-0.5 -0.3,-0.4 -0.5,-0.8 -0.5,-1.2 0,-0.8 0.7,-1.6 2.2,-2.3 1.2,-0.6 2.2,-0.9 3.1,-0.9 1.8,0 3.4,0.7 4.9,2 1.5,1.3 2.2,2.8 2.2,4.6 -0.1,1.7 -1,3.2 -2.7,4.5 z m -6,8.9 c -0.5,0 -0.9,-0.1 -1.3,-0.4 -0.4,-0.3 -0.6,-0.7 -0.6,-1.2 0,-0.6 0.2,-1.1 0.5,-1.6 0.4,-0.6 0.9,-0.9 1.6,-0.9 0.6,0 1,0.2 1.3,0.6 0.2,0.3 0.4,0.8 0.4,1.2 0,0.5 -0.1,1 -0.4,1.4 -0.4,0.7 -0.8,0.9 -1.5,0.9 z"
       id="path13"
       inkscape:connector-curvature="0"
       style="fill:#23445d" /></g></svg>