<?xml version="1.0" encoding="utf-8"?>
<!-- Generator: Adobe Illustrator 16.0.3, SVG Export Plug-In . SVG Version: 6.00 Build 0)  -->
<!DOCTYPE svg PUBLIC "-//W3C//DTD SVG 1.1//EN" "http://www.w3.org/Graphics/SVG/1.1/DTD/svg11.dtd">
<svg version="1.1" id="Ebene_1" xmlns="http://www.w3.org/2000/svg" xmlns:xlink="http://www.w3.org/1999/xlink" x="0px" y="0px"
	 width="44px" height="44px" viewBox="0 0 44 44" enable-background="new 0 0 44 44" xml:space="preserve">
<g>
	<path fill="#5D2235" d="M22,2c11.046,0,20,8.954,20,20s-8.954,20-20,20S2,33.046,2,22S10.954,2,22,2 M22,0C9.869,0,0,9.869,0,22
		s9.869,22,22,22s22-9.869,22-22S34.131,0,22,0L22,0z"/>
</g>
<circle opacity="0.5" fill="#FFFFFF" cx="22" cy="22" r="20"/>
<path display="none" fill-rule="evenodd" clip-rule="evenodd" fill="#23445D" d="M30.338,31.004h-6.833c0,0,0.291-5.556-2.056-5.556
	c-2.341,0-1.944,5.556-1.944,5.556h-5.833l-0.008-13.9l8.33-6.108l8.33,6.108L30.338,31.004z"/>
<path fill-rule="evenodd" clip-rule="evenodd" fill="#5D2235" d="M31.166,16.455h-2.179C28.96,13.438,26.29,11,22.999,11h-1.998
	c-3.292,0-5.961,2.438-5.989,5.455h-2.179L11,18.272v10.909L12.833,31h18.333L33,29.182V18.272L31.166,16.455z M20.158,13.955h3.684
	c1.269,0,2.327,1.062,2.65,2.5h-8.985C17.831,15.017,18.889,13.955,20.158,13.955z"/>
<g>
</g>
<g>
</g>
<g>
</g>
<g>
</g>
<g>
</g>
<g>
</g>
</svg>
