<?xml version="1.0" encoding="UTF-8" standalone="no"?>
<!-- Generator: Adobe Illustrator 18.0.0, SVG Export Plug-In . SVG Version: 6.00 Build 0)  -->

<svg
   xmlns:dc="http://purl.org/dc/elements/1.1/"
   xmlns:cc="http://creativecommons.org/ns#"
   xmlns:rdf="http://www.w3.org/1999/02/22-rdf-syntax-ns#"
   xmlns:svg="http://www.w3.org/2000/svg"
   xmlns="http://www.w3.org/2000/svg"
   xmlns:sodipodi="http://sodipodi.sourceforge.net/DTD/sodipodi-0.dtd"
   xmlns:inkscape="http://www.inkscape.org/namespaces/inkscape"
   version="1.1"
   id="Ebene_1"
   x="0px"
   y="0px"
   viewBox="0 0 60 60"
   enable-background="new 0 0 60 60"
   xml:space="preserve"
   inkscape:version="0.48.5 r10040"
   width="100%"
   height="100%"
   sodipodi:docname="zoom_out.svg"><metadata
     id="metadata13"><rdf:RDF><cc:Work
         rdf:about=""><dc:format>image/svg+xml</dc:format><dc:type
           rdf:resource="http://purl.org/dc/dcmitype/StillImage" /></cc:Work></rdf:RDF></metadata><defs
     id="defs11" /><sodipodi:namedview
     pagecolor="#ffffff"
     bordercolor="#666666"
     borderopacity="1"
     objecttolerance="10"
     gridtolerance="10"
     guidetolerance="10"
     inkscape:pageopacity="0"
     inkscape:pageshadow="2"
     inkscape:window-width="1920"
     inkscape:window-height="1151"
     id="namedview9"
     showgrid="false"
     inkscape:zoom="3.9333333"
     inkscape:cx="-2.0338983"
     inkscape:cy="29.491525"
     inkscape:window-x="0"
     inkscape:window-y="0"
     inkscape:window-maximized="1"
     inkscape:current-layer="Ebene_1" /><circle
     cx="30"
     cy="30"
     r="30"
     id="circle3"
     sodipodi:cx="30"
     sodipodi:cy="30"
     sodipodi:rx="30"
     sodipodi:ry="30"
     transform="matrix(0.91666667,0,0,0.91666667,2.4999999,2.4999999)"
     style="fill:#22445d" /><g
     id="g5"
     transform="matrix(0.91666667,0,0,0.91666667,2.4999999,2.4999999)"><path
       d="m 36.1,32.8 c -2.2,0.2 -6.2,0.2 -12,0.2 -1,0 -1.9,-0.2 -2.7,-0.7 -0.9,-0.6 -1.3,-1.3 -1.3,-2.2 0,-0.9 0.4,-1.7 1.3,-2.2 0.8,-0.5 1.7,-0.7 2.7,-0.7 1.3,0 3.2,0 5.8,-0.1 2.6,-0.1 4.5,-0.1 5.8,-0.1 1,0 1.9,0.2 2.7,0.6 1,0.5 1.5,1.3 1.5,2.3 0,1.8 -1.3,2.7 -3.8,2.9 z"
       id="path7"
       inkscape:connector-curvature="0"
       style="fill:#ffffff" /></g></svg>