<?xml version="1.0" encoding="UTF-8" standalone="no"?>
<!-- Generator: Adobe Illustrator 18.0.0, SVG Export Plug-In . SVG Version: 6.00 Build 0)  -->

<svg
   xmlns:dc="http://purl.org/dc/elements/1.1/"
   xmlns:cc="http://creativecommons.org/ns#"
   xmlns:rdf="http://www.w3.org/1999/02/22-rdf-syntax-ns#"
   xmlns:svg="http://www.w3.org/2000/svg"
   xmlns="http://www.w3.org/2000/svg"
   xmlns:sodipodi="http://sodipodi.sourceforge.net/DTD/sodipodi-0.dtd"
   xmlns:inkscape="http://www.inkscape.org/namespaces/inkscape"
   version="1.1"
   id="Ebene_1"
   x="0px"
   y="0px"
   viewBox="0 0 60 60"
   enable-background="new 0 0 60 60"
   xml:space="preserve"
   inkscape:version="0.48.5 r10040"
   width="100%"
   height="100%"
   sodipodi:docname="zoom_in.svg"><metadata
     id="metadata13"><rdf:RDF><cc:Work
         rdf:about=""><dc:format>image/svg+xml</dc:format><dc:type
           rdf:resource="http://purl.org/dc/dcmitype/StillImage" /></cc:Work></rdf:RDF></metadata><defs
     id="defs11" /><sodipodi:namedview
     pagecolor="#ffffff"
     bordercolor="#666666"
     borderopacity="1"
     objecttolerance="10"
     gridtolerance="10"
     guidetolerance="10"
     inkscape:pageopacity="0"
     inkscape:pageshadow="2"
     inkscape:window-width="1920"
     inkscape:window-height="1151"
     id="namedview9"
     showgrid="false"
     inkscape:zoom="3.9333333"
     inkscape:cx="-2.0338983"
     inkscape:cy="29.491525"
     inkscape:window-x="0"
     inkscape:window-y="0"
     inkscape:window-maximized="1"
     inkscape:current-layer="Ebene_1" /><circle
     cx="30"
     cy="30"
     r="30"
     id="circle3"
     sodipodi:cx="30"
     sodipodi:cy="30"
     sodipodi:rx="30"
     sodipodi:ry="30"
     transform="matrix(0.91666667,0,0,0.91666667,2.4999999,2.4999999)"
     style="fill:#22445d" /><g
     id="g5"
     transform="matrix(0.91666667,0,0,0.91666667,2.4083332,2.5916666)"><path
       d="m 38.4,33 c -0.2,0 -0.5,0 -0.9,-0.1 -0.4,-0.1 -0.7,-0.1 -0.9,-0.1 -0.4,0 -1.1,0 -2,0 -0.9,0 -1.5,0 -2,0 0,0.5 0,1.3 0,2.1 0,1.1 0,1.8 0,2.1 0,0.8 -0.3,1.5 -0.9,2 -0.6,0.5 -1.3,0.8 -2.2,0.8 -0.9,0 -1.6,-0.3 -2.2,-0.8 -0.6,-0.5 -0.9,-1.2 -0.9,-2.1 0,0.2 0,-1.2 0,-4.2 -1.2,0.1 -2.3,0.1 -3.2,0.1 C 22,32.8 21,32.6 20.1,32.2 19,31.8 18.5,31 18.5,30 c 0,-1.3 0.5,-2.1 1.6,-2.5 0.6,-0.2 1.6,-0.3 3.2,-0.3 0.9,0 2,0 3.2,-0.1 0,-0.2 0,-0.5 0,-1 0,-0.5 0,-0.9 0,-1.2 0,-3.3 1.1,-4.9 3.3,-4.9 0.9,0 1.6,0.3 2.2,0.8 0.6,0.5 1,1.2 1,2 0,0.3 0,0.7 -0.1,1.2 -0.1,0.5 -0.1,1 -0.1,1.2 l 0,1.7 c 0.4,0 0.7,0 0.9,0 0.3,0 0.8,0 1.5,0 0.7,0 1.2,0 1.5,0 3.3,0 5,1 5,3 0,0.8 -0.3,1.5 -0.8,2.1 -0.8,0.6 -1.6,1 -2.5,1 z"
       id="path7"
       inkscape:connector-curvature="0"
       style="fill:#ffffff" /></g></svg>